<?xml version="1.0" encoding="utf-8" standalone="no"?>
<!DOCTYPE svg PUBLIC "-//W3C//DTD SVG 1.1//EN"
  "http://www.w3.org/Graphics/SVG/1.1/DTD/svg11.dtd">
<svg xmlns:xlink="http://www.w3.org/1999/xlink" width="777.081484pt" height="315.1368pt" viewBox="0 0 777.081484 315.1368" xmlns="http://www.w3.org/2000/svg" version="1.1">
 <metadata>
  <rdf:RDF xmlns:dc="http://purl.org/dc/elements/1.1/" xmlns:cc="http://creativecommons.org/ns#" xmlns:rdf="http://www.w3.org/1999/02/22-rdf-syntax-ns#">
   <cc:Work>
    <dc:type rdf:resource="http://purl.org/dc/dcmitype/StillImage"/>
    <dc:date>2026-07-08T15:56:11.997369</dc:date>
    <dc:format>image/svg+xml</dc:format>
    <dc:creator>
     <cc:Agent>
      <dc:title>Matplotlib v3.10.8, https://matplotlib.org/</dc:title>
     </cc:Agent>
    </dc:creator>
   </cc:Work>
  </rdf:RDF>
 </metadata>
 <defs>
  <style type="text/css">*{stroke-linejoin: round; stroke-linecap: butt}</style>
 </defs>
 <g id="figure_1">
  <g id="patch_1">
   <path d="M 0 315.1368 
L 777.081484 315.1368 
L 777.081484 0 
L 0 0 
z
" style="fill: #f7f3e9"/>
  </g>
  <g id="axes_1">
   <g id="patch_2">
    <path d="M 93.384 268.342211 
L 402.702393 268.342211 
L 402.702393 93.061789 
L 93.384 93.061789 
z
" style="fill: #ffffff"/>
   </g>
   <g id="patch_3">
    <path d="M 134.626452 134.304241 
L 217.111357 134.304241 
L 217.111357 237.410372 
L 134.626452 237.410372 
L 134.626452 134.304241 
z
" clip-path="url(#pe94ef02fee)" style="fill: none; stroke-dasharray: 10,6; stroke-dashoffset: 0; stroke: #37535f; stroke-width: 2; stroke-linejoin: miter"/>
   </g>
   <g id="patch_4">
    <path d="M 128.440085 118.838321 
L 239.794706 118.838321 
L 239.794706 211.633839 
L 128.440085 211.633839 
L 128.440085 118.838321 
z
" clip-path="url(#pe94ef02fee)" style="fill: none; stroke: #b85a3e; stroke-width: 2.4; stroke-linejoin: miter"/>
   </g>
   <g id="patch_5">
    <path d="M 176.610987 184.002101 
Q 179.993086 175.546854 182.793866 168.544903 
" clip-path="url(#pe94ef02fee)" style="fill: none; stroke: #161513; stroke-width: 1.4; stroke-linecap: round"/>
    <path d="M 178.448595 172.407366 
L 182.793866 168.544903 
L 183.276674 174.338598 
z
" clip-path="url(#pe94ef02fee)" style="fill: #161513; stroke: #161513; stroke-width: 1.4; stroke-linecap: round"/>
   </g>
   <g id="matplotlib.axis_1"/>
   <g id="matplotlib.axis_2"/>
   <g id="line2d_1">
    <defs>
     <path id="m81a6a21902" d="M 0 3 
C 0.795609 3 1.55874 2.683901 2.12132 2.12132 
C 2.683901 1.55874 3 0.795609 3 0 
C 3 -0.795609 2.683901 -1.55874 2.12132 -2.12132 
C 1.55874 -2.683901 0.795609 -3 0 -3 
C -0.795609 -3 -1.55874 -2.683901 -2.12132 -2.12132 
C -2.683901 -1.55874 -3 -0.795609 -3 0 
C -3 0.795609 -2.683901 1.55874 -2.12132 2.12132 
C -1.55874 2.683901 -0.795609 3 0 3 
z
" style="stroke: #37535f"/>
    </defs>
    <g clip-path="url(#pe94ef02fee)">
     <use xlink:href="#m81a6a21902" x="175.868905" y="185.857307" style="fill: #37535f; stroke: #37535f"/>
    </g>
   </g>
   <g id="line2d_2">
    <defs>
     <path id="maf1b9753d0" d="M 0 -6 
L -1.347084 -1.854102 
L -5.706339 -1.854102 
L -2.179628 0.708204 
L -3.526712 4.854102 
L -0 2.291796 
L 3.526712 4.854102 
L 2.179628 0.708204 
L 5.706339 -1.854102 
L 1.347084 -1.854102 
z
" style="stroke: #b85a3e; stroke-linejoin: bevel"/>
    </defs>
    <g clip-path="url(#pe94ef02fee)">
     <use xlink:href="#maf1b9753d0" x="184.117395" y="165.23608" style="fill: #b85a3e; stroke: #b85a3e; stroke-linejoin: bevel"/>
    </g>
   </g>
   <g id="patch_6">
    <path d="M 93.384 268.342211 
L 93.384 93.061789 
" style="fill: none; stroke: #5f5c54; stroke-width: 0.8; stroke-linejoin: miter; stroke-linecap: square"/>
   </g>
   <g id="patch_7">
    <path d="M 402.702393 268.342211 
L 402.702393 93.061789 
" style="fill: none; stroke: #5f5c54; stroke-width: 0.8; stroke-linejoin: miter; stroke-linecap: square"/>
   </g>
   <g id="patch_8">
    <path d="M 93.384 268.342211 
L 402.702393 268.342211 
" style="fill: none; stroke: #5f5c54; stroke-width: 0.8; stroke-linejoin: miter; stroke-linecap: square"/>
   </g>
   <g id="patch_9">
    <path d="M 93.384 93.061789 
L 402.702393 93.061789 
" style="fill: none; stroke: #5f5c54; stroke-width: 0.8; stroke-linejoin: miter; stroke-linecap: square"/>
   </g>
   <g id="text_1">
    <!-- anchor -->
    <g style="fill: #37535f" transform="translate(159.701366 255.658329) scale(0.105 -0.105)">
     <defs>
      <path id="Georgia-61" d="M 3144 56 
Q 2997 3 2886 -30 
Q 2775 -63 2634 -63 
Q 2391 -63 2245 51 
Q 2100 166 2059 384 
L 2041 384 
Q 1838 159 1605 40 
Q 1372 -78 1044 -78 
Q 697 -78 473 134 
Q 250 347 250 691 
Q 250 869 300 1009 
Q 350 1150 450 1263 
Q 528 1356 656 1429 
Q 784 1503 897 1547 
Q 1038 1600 1467 1744 
Q 1897 1888 2047 1969 
L 2047 2278 
Q 2047 2319 2030 2434 
Q 2013 2550 1956 2653 
Q 1894 2769 1780 2855 
Q 1666 2941 1456 2941 
Q 1313 2941 1189 2892 
Q 1066 2844 1016 2791 
Q 1016 2728 1045 2606 
Q 1075 2484 1075 2381 
Q 1075 2272 976 2181 
Q 878 2091 703 2091 
Q 547 2091 473 2202 
Q 400 2313 400 2450 
Q 400 2594 501 2725 
Q 603 2856 766 2959 
Q 906 3047 1106 3108 
Q 1306 3169 1497 3169 
Q 1759 3169 1954 3133 
Q 2150 3097 2309 2978 
Q 2469 2863 2551 2664 
Q 2634 2466 2634 2153 
Q 2634 1706 2625 1361 
Q 2616 1016 2616 606 
Q 2616 484 2658 412 
Q 2700 341 2788 291 
Q 2834 263 2936 259 
Q 3038 256 3144 256 
L 3144 56 
z
M 2053 1706 
Q 1788 1628 1588 1553 
Q 1388 1478 1216 1366 
Q 1059 1259 968 1114 
Q 878 969 878 769 
Q 878 509 1014 387 
Q 1150 266 1359 266 
Q 1581 266 1750 373 
Q 1919 481 2034 628 
L 2053 1706 
z
" transform="scale(0.015625)"/>
      <path id="Georgia-6e" d="M 3628 0 
L 2119 0 
L 2119 206 
Q 2191 213 2277 219 
Q 2363 225 2419 244 
Q 2506 272 2548 342 
Q 2591 413 2591 525 
L 2591 2109 
Q 2591 2438 2436 2616 
Q 2281 2794 2059 2794 
Q 1894 2794 1756 2742 
Q 1619 2691 1513 2616 
Q 1409 2544 1348 2461 
Q 1288 2378 1259 2328 
L 1259 556 
Q 1259 450 1303 381 
Q 1347 313 1434 275 
Q 1500 244 1576 228 
Q 1653 213 1734 206 
L 1734 0 
L 225 0 
L 225 206 
Q 297 213 373 219 
Q 450 225 506 244 
Q 594 272 636 342 
Q 678 413 678 525 
L 678 2428 
Q 678 2534 633 2623 
Q 588 2713 506 2769 
Q 447 2806 365 2823 
Q 284 2841 191 2847 
L 191 3050 
L 1216 3119 
L 1259 3075 
L 1259 2641 
L 1275 2641 
Q 1350 2716 1462 2820 
Q 1575 2925 1675 2991 
Q 1791 3066 1950 3116 
Q 2109 3166 2309 3166 
Q 2753 3166 2967 2889 
Q 3181 2613 3181 2153 
L 3181 550 
Q 3181 441 3218 373 
Q 3256 306 3347 269 
Q 3422 238 3476 225 
Q 3531 213 3628 206 
L 3628 0 
z
" transform="scale(0.015625)"/>
      <path id="Georgia-63" d="M 1650 -81 
Q 981 -81 603 362 
Q 225 806 225 1553 
Q 225 1878 326 2161 
Q 428 2444 622 2675 
Q 806 2897 1084 3033 
Q 1363 3169 1691 3169 
Q 2144 3169 2428 2951 
Q 2713 2734 2713 2359 
Q 2713 2203 2638 2083 
Q 2563 1963 2391 1963 
Q 2206 1963 2104 2056 
Q 2003 2150 2003 2266 
Q 2003 2406 2040 2554 
Q 2078 2703 2084 2772 
Q 2028 2869 1917 2901 
Q 1806 2934 1678 2934 
Q 1528 2934 1392 2870 
Q 1256 2806 1128 2634 
Q 1013 2478 941 2212 
Q 869 1947 869 1578 
Q 869 997 1126 630 
Q 1384 263 1803 263 
Q 2106 263 2311 409 
Q 2516 556 2691 850 
L 2891 719 
Q 2684 350 2346 134 
Q 2009 -81 1650 -81 
z
" transform="scale(0.015625)"/>
      <path id="Georgia-68" d="M 3572 0 
L 2059 0 
L 2059 206 
Q 2131 213 2218 219 
Q 2306 225 2363 244 
Q 2450 272 2492 342 
Q 2534 413 2534 525 
L 2534 2109 
Q 2534 2438 2379 2616 
Q 2225 2794 2003 2794 
Q 1841 2794 1702 2742 
Q 1563 2691 1453 2616 
Q 1347 2538 1290 2459 
Q 1234 2381 1203 2328 
L 1203 556 
Q 1203 450 1245 381 
Q 1288 313 1375 275 
Q 1444 244 1517 228 
Q 1591 213 1678 206 
L 1678 0 
L 166 0 
L 166 206 
Q 238 213 316 220 
Q 394 228 447 244 
Q 534 272 578 342 
Q 622 413 622 525 
L 622 4113 
Q 622 4219 573 4325 
Q 525 4431 447 4484 
Q 391 4525 248 4542 
Q 106 4559 19 4566 
L 19 4766 
L 1159 4838 
L 1203 4791 
L 1203 2641 
L 1216 2641 
Q 1319 2744 1403 2823 
Q 1488 2903 1625 2991 
Q 1744 3066 1905 3116 
Q 2066 3166 2266 3166 
Q 2678 3166 2900 2905 
Q 3122 2644 3122 2153 
L 3122 550 
Q 3122 441 3161 373 
Q 3200 306 3291 269 
Q 3363 241 3420 227 
Q 3478 213 3572 206 
L 3572 0 
z
" transform="scale(0.015625)"/>
      <path id="Georgia-6f" d="M 3228 1572 
Q 3228 1247 3125 933 
Q 3022 619 2831 400 
Q 2616 150 2331 28 
Q 2047 -94 1694 -94 
Q 1400 -94 1134 17 
Q 869 128 663 341 
Q 459 550 339 851 
Q 219 1153 219 1528 
Q 219 2250 639 2709 
Q 1059 3169 1741 3169 
Q 2388 3169 2808 2733 
Q 3228 2297 3228 1572 
z
M 2581 1566 
Q 2581 1800 2534 2061 
Q 2488 2322 2394 2503 
Q 2294 2697 2131 2814 
Q 1969 2931 1734 2931 
Q 1494 2931 1323 2812 
Q 1153 2694 1047 2488 
Q 947 2297 906 2053 
Q 866 1809 866 1581 
Q 866 1281 914 1026 
Q 963 772 1069 572 
Q 1175 372 1336 258 
Q 1497 144 1734 144 
Q 2125 144 2353 522 
Q 2581 900 2581 1566 
z
" transform="scale(0.015625)"/>
      <path id="Georgia-72" d="M 2584 2684 
Q 2584 2525 2506 2401 
Q 2428 2278 2266 2278 
Q 2091 2278 1998 2368 
Q 1906 2459 1906 2569 
Q 1906 2638 1917 2694 
Q 1928 2750 1938 2806 
Q 1791 2806 1594 2687 
Q 1397 2569 1259 2350 
L 1259 556 
Q 1259 447 1301 378 
Q 1344 309 1434 275 
Q 1513 244 1636 228 
Q 1759 213 1850 206 
L 1850 0 
L 225 0 
L 225 206 
Q 297 213 373 219 
Q 450 225 506 244 
Q 594 272 636 342 
Q 678 413 678 525 
L 678 2428 
Q 678 2525 633 2619 
Q 588 2713 506 2769 
Q 447 2806 365 2823 
Q 284 2841 191 2847 
L 191 3050 
L 1216 3119 
L 1259 3075 
L 1259 2641 
L 1275 2641 
Q 1469 2894 1706 3025 
Q 1944 3156 2141 3156 
Q 2338 3156 2461 3028 
Q 2584 2900 2584 2684 
z
" transform="scale(0.015625)"/>
     </defs>
     <use xlink:href="#Georgia-61"/>
     <use xlink:href="#Georgia-6e" transform="translate(50.390625 0)"/>
     <use xlink:href="#Georgia-63" transform="translate(109.472656 0)"/>
     <use xlink:href="#Georgia-68" transform="translate(154.882812 0)"/>
     <use xlink:href="#Georgia-6f" transform="translate(213.085938 0)"/>
     <use xlink:href="#Georgia-72" transform="translate(266.992188 0)"/>
    </g>
    <!-- (120, 240, 80, 100) -->
    <g style="fill: #37535f" transform="translate(131.302147 267.460329) scale(0.105 -0.105)">
     <defs>
      <path id="Georgia-28" d="M 2191 -1025 
Q 1338 -919 852 -165 
Q 366 588 366 1863 
Q 366 3159 852 3917 
Q 1338 4675 2191 4788 
L 2191 4528 
Q 1591 4419 1278 3762 
Q 966 3106 966 1856 
Q 966 666 1272 5 
Q 1578 -656 2191 -769 
L 2191 -1025 
z
" transform="scale(0.015625)"/>
      <path id="Georgia-31" d="M 2528 0 
L 422 0 
L 422 222 
Q 516 228 714 248 
Q 913 269 988 291 
Q 1084 322 1136 392 
Q 1188 463 1188 603 
L 1188 2797 
L 409 2797 
L 409 3059 
L 581 3059 
Q 919 3059 1186 3184 
Q 1453 3309 1569 3453 
L 1828 3453 
Q 1819 3250 1809 2978 
Q 1800 2706 1800 2491 
L 1800 638 
Q 1800 528 1848 442 
Q 1897 356 1988 316 
Q 2069 281 2253 253 
Q 2438 225 2528 222 
L 2528 0 
z
" transform="scale(0.015625)"/>
      <path id="Georgia-32" d="M 3272 0 
L 344 0 
L 344 425 
Q 428 522 578 642 
Q 728 763 934 903 
Q 1059 988 1234 1088 
Q 1409 1188 1631 1306 
Q 1878 1438 2011 1538 
Q 2144 1638 2253 1784 
Q 2325 1881 2369 2026 
Q 2413 2172 2413 2441 
Q 2413 2831 2203 3014 
Q 1994 3197 1666 3197 
Q 1463 3197 1281 3117 
Q 1100 3038 1009 2897 
Q 1031 2797 1064 2659 
Q 1097 2522 1097 2391 
Q 1097 2272 998 2180 
Q 900 2088 706 2088 
Q 550 2088 465 2195 
Q 381 2303 381 2484 
Q 381 2653 475 2823 
Q 569 2994 744 3138 
Q 916 3278 1169 3365 
Q 1422 3453 1716 3453 
Q 2356 3453 2732 3167 
Q 3109 2881 3109 2403 
Q 3109 2175 3042 1987 
Q 2975 1800 2825 1656 
Q 2659 1497 2437 1383 
Q 2216 1269 1759 1066 
Q 1488 944 1253 811 
Q 1019 678 869 553 
L 3272 553 
L 3272 0 
z
" transform="scale(0.015625)"/>
      <path id="Georgia-30" d="M 3209 2919 
Q 3409 2678 3507 2354 
Q 3606 2031 3606 1678 
Q 3606 1253 3484 917 
Q 3363 581 3150 359 
Q 2931 131 2631 15 
Q 2331 -100 1963 -100 
Q 1559 -100 1243 34 
Q 928 169 731 403 
Q 525 647 423 973 
Q 322 1300 322 1678 
Q 322 2050 420 2362 
Q 519 2675 728 2928 
Q 928 3172 1243 3312 
Q 1559 3453 1966 3453 
Q 2394 3453 2700 3309 
Q 3006 3166 3209 2919 
z
M 2916 1678 
Q 2916 2422 2661 2831 
Q 2406 3241 1969 3241 
Q 1525 3241 1269 2831 
Q 1013 2422 1013 1678 
Q 1013 972 1258 542 
Q 1503 113 1963 113 
Q 2422 113 2669 542 
Q 2916 972 2916 1678 
z
" transform="scale(0.015625)"/>
      <path id="Georgia-2c" d="M 1341 109 
Q 1341 -116 1239 -316 
Q 1138 -516 1006 -659 
Q 872 -809 722 -925 
Q 572 -1041 447 -1106 
L 303 -897 
Q 453 -803 572 -709 
Q 691 -616 766 -522 
Q 859 -413 925 -284 
Q 991 -156 1009 6 
L 850 6 
Q 641 6 523 115 
Q 406 225 406 409 
Q 406 541 512 664 
Q 619 788 803 788 
Q 1072 788 1206 608 
Q 1341 428 1341 109 
z
" transform="scale(0.015625)"/>
      <path id="Georgia-20" transform="scale(0.015625)"/>
      <path id="Georgia-34" d="M 3388 281 
L 2753 281 
L 2753 -1141 
L 2153 -1141 
L 2153 281 
L 153 281 
L 153 763 
L 2344 3434 
L 2753 3434 
L 2753 691 
L 3388 691 
L 3388 281 
z
M 2153 691 
L 2153 2738 
L 466 691 
L 2153 691 
z
" transform="scale(0.015625)"/>
      <path id="Georgia-38" d="M 3491 1175 
Q 3491 650 3037 272 
Q 2584 -106 1847 -106 
Q 1156 -106 740 241 
Q 325 588 325 1134 
Q 325 1538 570 1808 
Q 816 2078 1297 2266 
Q 900 2488 703 2753 
Q 506 3019 506 3353 
Q 506 3863 939 4206 
Q 1372 4550 1975 4550 
Q 2578 4550 2951 4225 
Q 3325 3900 3325 3409 
Q 3325 3094 3119 2811 
Q 2913 2528 2513 2347 
Q 3031 2125 3261 1856 
Q 3491 1588 3491 1175 
z
M 2734 3444 
Q 2734 3825 2507 4064 
Q 2281 4303 1928 4303 
Q 1575 4303 1350 4073 
Q 1125 3844 1125 3503 
Q 1125 3175 1381 2947 
Q 1638 2719 2294 2459 
Q 2528 2609 2631 2856 
Q 2734 3103 2734 3444 
z
M 2866 1028 
Q 2866 1225 2781 1373 
Q 2697 1522 2538 1644 
Q 2384 1763 2111 1892 
Q 1838 2022 1519 2156 
Q 1219 1994 1078 1742 
Q 938 1491 938 1169 
Q 938 709 1208 426 
Q 1478 144 1928 144 
Q 2359 144 2612 394 
Q 2866 644 2866 1028 
z
" transform="scale(0.015625)"/>
      <path id="Georgia-29" d="M 2034 1863 
Q 2034 588 1548 -165 
Q 1063 -919 209 -1025 
L 209 -769 
Q 822 -656 1128 5 
Q 1434 666 1434 1856 
Q 1434 3106 1121 3762 
Q 809 4419 209 4528 
L 209 4788 
Q 1063 4675 1548 3917 
Q 2034 3159 2034 1863 
z
" transform="scale(0.015625)"/>
     </defs>
     <use xlink:href="#Georgia-28"/>
     <use xlink:href="#Georgia-31" transform="translate(37.5 0)"/>
     <use xlink:href="#Georgia-32" transform="translate(80.46875 0)"/>
     <use xlink:href="#Georgia-30" transform="translate(136.328125 0)"/>
     <use xlink:href="#Georgia-2c" transform="translate(197.705078 0)"/>
     <use xlink:href="#Georgia-20" transform="translate(224.658203 0)"/>
     <use xlink:href="#Georgia-32" transform="translate(248.779297 0)"/>
     <use xlink:href="#Georgia-34" transform="translate(304.638672 0)"/>
     <use xlink:href="#Georgia-30" transform="translate(361.132812 0)"/>
     <use xlink:href="#Georgia-2c" transform="translate(422.509766 0)"/>
     <use xlink:href="#Georgia-20" transform="translate(449.462891 0)"/>
     <use xlink:href="#Georgia-38" transform="translate(473.583984 0)"/>
     <use xlink:href="#Georgia-30" transform="translate(533.203125 0)"/>
     <use xlink:href="#Georgia-2c" transform="translate(594.580078 0)"/>
     <use xlink:href="#Georgia-20" transform="translate(621.533203 0)"/>
     <use xlink:href="#Georgia-31" transform="translate(645.654297 0)"/>
     <use xlink:href="#Georgia-30" transform="translate(688.623047 0)"/>
     <use xlink:href="#Georgia-30" transform="translate(750 0)"/>
     <use xlink:href="#Georgia-29" transform="translate(811.376953 0)"/>
    </g>
   </g>
   <g id="text_2">
    <!-- decoded box -->
    <g style="fill: #b85a3e" transform="translate(273.819729 118.860583) scale(0.105 -0.105)">
     <defs>
      <path id="Georgia-64" d="M 3600 56 
L 2525 -13 
L 2478 31 
L 2478 319 
L 2453 325 
Q 2291 144 2052 28 
Q 1813 -88 1559 -88 
Q 1297 -88 1051 29 
Q 806 147 625 359 
Q 441 575 333 878 
Q 225 1181 225 1547 
Q 225 1881 340 2181 
Q 456 2481 659 2706 
Q 850 2916 1126 3041 
Q 1403 3166 1691 3166 
Q 1906 3166 2114 3111 
Q 2322 3056 2472 2972 
L 2472 4044 
Q 2472 4175 2428 4283 
Q 2384 4391 2306 4447 
Q 2219 4506 2070 4532 
Q 1922 4559 1750 4572 
L 1750 4766 
L 3009 4838 
L 3056 4791 
L 3056 634 
Q 3056 525 3098 448 
Q 3141 372 3222 319 
Q 3281 281 3393 272 
Q 3506 263 3600 259 
L 3600 56 
z
M 2472 597 
L 2472 2400 
Q 2447 2481 2390 2575 
Q 2334 2669 2250 2747 
Q 2159 2825 2037 2876 
Q 1916 2928 1753 2928 
Q 1566 2928 1408 2831 
Q 1250 2734 1128 2553 
Q 1013 2378 945 2108 
Q 878 1838 878 1509 
Q 878 1247 928 1033 
Q 978 819 1097 634 
Q 1206 459 1376 353 
Q 1547 247 1781 247 
Q 2031 247 2195 356 
Q 2359 466 2472 597 
z
" transform="scale(0.015625)"/>
      <path id="Georgia-65" d="M 2963 725 
Q 2769 356 2444 137 
Q 2119 -81 1697 -81 
Q 1325 -81 1045 50 
Q 766 181 584 406 
Q 403 631 314 931 
Q 225 1231 225 1566 
Q 225 1866 320 2155 
Q 416 2444 600 2675 
Q 778 2897 1042 3033 
Q 1306 3169 1634 3169 
Q 1972 3169 2212 3062 
Q 2453 2956 2603 2772 
Q 2747 2597 2817 2359 
Q 2888 2122 2888 1844 
L 2888 1638 
L 847 1638 
Q 847 1334 905 1087 
Q 963 841 1088 653 
Q 1209 472 1406 367 
Q 1603 263 1875 263 
Q 2153 263 2354 392 
Q 2556 522 2744 859 
L 2963 725 
z
M 2272 1900 
Q 2272 2075 2242 2275 
Q 2213 2475 2147 2609 
Q 2075 2753 1950 2843 
Q 1825 2934 1628 2934 
Q 1300 2934 1083 2661 
Q 866 2388 847 1900 
L 2272 1900 
z
" transform="scale(0.015625)"/>
      <path id="Georgia-62" d="M 3353 1544 
Q 3353 850 2915 378 
Q 2478 -94 1900 -94 
Q 1647 -94 1401 -15 
Q 1156 63 941 194 
L 709 -166 
L 516 -122 
Q 531 109 537 434 
Q 544 759 544 1063 
L 544 4113 
Q 544 4219 495 4325 
Q 447 4431 372 4478 
Q 313 4519 173 4539 
Q 34 4559 -50 4566 
L -50 4766 
L 1081 4838 
L 1125 4791 
L 1125 2759 
L 1147 2753 
Q 1341 2959 1570 3062 
Q 1800 3166 2022 3166 
Q 2591 3166 2972 2716 
Q 3353 2266 3353 1544 
z
M 2700 1522 
Q 2700 1753 2650 1993 
Q 2600 2234 2494 2413 
Q 2388 2594 2216 2706 
Q 2044 2819 1803 2819 
Q 1584 2819 1420 2733 
Q 1256 2647 1125 2500 
L 1125 706 
Q 1144 631 1198 531 
Q 1253 431 1347 341 
Q 1441 253 1559 198 
Q 1678 144 1850 144 
Q 2231 144 2465 512 
Q 2700 881 2700 1522 
z
" transform="scale(0.015625)"/>
      <path id="Georgia-78" d="M 3194 0 
L 1781 0 
L 1781 206 
Q 1922 222 2020 237 
Q 2119 253 2119 319 
Q 2119 347 2087 406 
Q 2056 466 2025 516 
Q 1947 638 1811 842 
Q 1675 1047 1478 1331 
Q 1316 1128 1178 936 
Q 1041 744 891 528 
Q 869 497 845 450 
Q 822 403 822 375 
Q 822 306 911 261 
Q 1000 216 1178 200 
L 1178 0 
L 38 0 
L 38 194 
Q 250 256 379 345 
Q 509 434 619 566 
Q 716 691 889 909 
Q 1063 1128 1338 1503 
Q 1178 1731 948 2061 
Q 719 2391 569 2609 
Q 488 2728 383 2801 
Q 278 2875 88 2875 
L 88 3081 
L 1428 3081 
L 1428 2875 
Q 1328 2875 1231 2862 
Q 1134 2850 1134 2806 
Q 1134 2778 1153 2743 
Q 1172 2709 1200 2669 
Q 1269 2563 1414 2341 
Q 1559 2119 1728 1872 
Q 1838 2022 1983 2222 
Q 2128 2422 2250 2603 
Q 2263 2625 2275 2658 
Q 2288 2691 2288 2722 
Q 2288 2788 2180 2827 
Q 2072 2866 1975 2881 
L 1975 3081 
L 3113 3081 
L 3113 2888 
Q 2872 2825 2737 2739 
Q 2603 2653 2509 2541 
Q 2406 2413 2264 2225 
Q 2122 2038 1866 1700 
Q 2150 1300 2328 1044 
Q 2506 788 2688 516 
Q 2778 378 2889 298 
Q 3000 219 3194 206 
L 3194 0 
z
" transform="scale(0.015625)"/>
     </defs>
     <use xlink:href="#Georgia-64"/>
     <use xlink:href="#Georgia-65" transform="translate(57.421875 0)"/>
     <use xlink:href="#Georgia-63" transform="translate(105.761719 0)"/>
     <use xlink:href="#Georgia-6f" transform="translate(151.171875 0)"/>
     <use xlink:href="#Georgia-64" transform="translate(205.078125 0)"/>
     <use xlink:href="#Georgia-65" transform="translate(262.5 0)"/>
     <use xlink:href="#Georgia-64" transform="translate(310.839844 0)"/>
     <use xlink:href="#Georgia-20" transform="translate(368.261719 0)"/>
     <use xlink:href="#Georgia-62" transform="translate(392.382812 0)"/>
     <use xlink:href="#Georgia-6f" transform="translate(448.388672 0)"/>
     <use xlink:href="#Georgia-78" transform="translate(502.294922 0)"/>
    </g>
    <!-- (128, 220, 108, 90) -->
    <g style="fill: #b85a3e" transform="translate(273.819729 130.662583) scale(0.105 -0.105)">
     <defs>
      <path id="Georgia-39" d="M 3300 1613 
Q 3300 1069 3128 589 
Q 2956 109 2634 -253 
Q 2319 -609 1864 -845 
Q 1409 -1081 847 -1156 
L 791 -875 
L 1072 -825 
Q 1744 -613 2122 -172 
Q 2500 269 2609 947 
Q 2353 728 2098 626 
Q 1844 525 1525 525 
Q 1016 525 639 922 
Q 263 1319 263 1922 
Q 263 2569 698 3012 
Q 1134 3456 1775 3456 
Q 2472 3456 2886 2959 
Q 3300 2463 3300 1613 
z
M 2638 1650 
Q 2638 2381 2398 2795 
Q 2159 3209 1769 3209 
Q 1397 3209 1169 2889 
Q 941 2569 941 2006 
Q 941 1500 1173 1194 
Q 1406 888 1797 888 
Q 2041 888 2244 977 
Q 2447 1066 2622 1263 
Q 2622 1275 2626 1312 
Q 2631 1350 2631 1419 
Q 2631 1463 2634 1525 
Q 2638 1588 2638 1650 
z
" transform="scale(0.015625)"/>
     </defs>
     <use xlink:href="#Georgia-28"/>
     <use xlink:href="#Georgia-31" transform="translate(37.5 0)"/>
     <use xlink:href="#Georgia-32" transform="translate(80.46875 0)"/>
     <use xlink:href="#Georgia-38" transform="translate(136.328125 0)"/>
     <use xlink:href="#Georgia-2c" transform="translate(195.947266 0)"/>
     <use xlink:href="#Georgia-20" transform="translate(222.900391 0)"/>
     <use xlink:href="#Georgia-32" transform="translate(247.021484 0)"/>
     <use xlink:href="#Georgia-32" transform="translate(302.880859 0)"/>
     <use xlink:href="#Georgia-30" transform="translate(358.740234 0)"/>
     <use xlink:href="#Georgia-2c" transform="translate(420.117188 0)"/>
     <use xlink:href="#Georgia-20" transform="translate(447.070312 0)"/>
     <use xlink:href="#Georgia-31" transform="translate(471.191406 0)"/>
     <use xlink:href="#Georgia-30" transform="translate(514.160156 0)"/>
     <use xlink:href="#Georgia-38" transform="translate(575.537109 0)"/>
     <use xlink:href="#Georgia-2c" transform="translate(635.15625 0)"/>
     <use xlink:href="#Georgia-20" transform="translate(662.109375 0)"/>
     <use xlink:href="#Georgia-39" transform="translate(686.230469 0)"/>
     <use xlink:href="#Georgia-30" transform="translate(742.822266 0)"/>
     <use xlink:href="#Georgia-29" transform="translate(804.199219 0)"/>
    </g>
   </g>
   <g id="text_3">
    <!-- small nudge -->
    <g style="fill: #5f5c54" transform="translate(206.800744 196.16792) scale(0.1 -0.1)">
     <defs>
      <path id="Georgia-Italic-73" d="M 1131 -91 
Q 669 -91 361 73 
Q 53 238 53 503 
Q 53 628 143 737 
Q 234 847 366 847 
Q 491 847 567 789 
Q 644 731 688 653 
Q 734 572 770 459 
Q 806 347 831 275 
Q 878 222 961 176 
Q 1044 131 1200 131 
Q 1538 131 1711 300 
Q 1884 469 1884 756 
Q 1884 969 1721 1095 
Q 1559 1222 1238 1328 
Q 1122 1366 965 1442 
Q 809 1519 716 1606 
Q 603 1706 534 1843 
Q 466 1981 466 2169 
Q 466 2569 823 2861 
Q 1181 3153 1703 3153 
Q 1825 3153 1965 3140 
Q 2106 3128 2275 3072 
Q 2422 3022 2525 2923 
Q 2628 2825 2628 2669 
Q 2628 2541 2542 2436 
Q 2456 2331 2316 2331 
Q 2200 2331 2125 2381 
Q 2050 2431 2000 2516 
Q 1950 2600 1919 2697 
Q 1888 2794 1850 2888 
Q 1791 2913 1744 2922 
Q 1697 2931 1619 2931 
Q 1313 2931 1155 2767 
Q 997 2603 997 2378 
Q 997 2159 1139 2048 
Q 1281 1938 1609 1819 
Q 2034 1666 2226 1469 
Q 2419 1272 2419 981 
Q 2419 506 2053 207 
Q 1688 -91 1131 -91 
z
" transform="scale(0.015625)"/>
      <path id="Georgia-Italic-6d" d="M 5447 353 
L 5400 153 
Q 5113 38 4941 -7 
Q 4769 -53 4647 -53 
Q 4397 -53 4272 76 
Q 4147 206 4147 397 
Q 4147 466 4159 548 
Q 4172 631 4200 744 
L 4506 1909 
Q 4541 2044 4561 2153 
Q 4581 2263 4581 2328 
Q 4581 2538 4490 2659 
Q 4400 2781 4203 2781 
Q 3994 2781 3792 2682 
Q 3591 2584 3338 2316 
L 2794 0 
L 2213 0 
L 2703 2088 
Q 2719 2156 2733 2232 
Q 2747 2309 2747 2347 
Q 2747 2550 2645 2665 
Q 2544 2781 2347 2781 
Q 2169 2781 1953 2692 
Q 1738 2603 1453 2294 
L 925 0 
L 344 0 
L 809 2025 
Q 834 2134 857 2259 
Q 881 2384 881 2472 
Q 881 2653 822 2711 
Q 763 2769 591 2769 
Q 522 2769 414 2744 
Q 306 2719 247 2703 
L 294 2903 
Q 538 3013 725 3066 
Q 913 3119 1047 3119 
Q 1297 3119 1401 2983 
Q 1506 2847 1513 2613 
L 1531 2613 
Q 1900 2903 2137 3028 
Q 2375 3153 2703 3153 
Q 2981 3153 3154 2992 
Q 3328 2831 3350 2588 
L 3363 2588 
Q 3697 2866 3958 3009 
Q 4219 3153 4566 3153 
Q 4866 3153 5027 2979 
Q 5188 2806 5188 2525 
Q 5188 2469 5170 2325 
Q 5153 2181 5116 2041 
L 4853 1038 
Q 4825 938 4800 808 
Q 4775 678 4775 606 
Q 4775 428 4850 364 
Q 4925 300 5103 300 
Q 5163 300 5275 315 
Q 5388 331 5447 353 
z
" transform="scale(0.015625)"/>
      <path id="Georgia-Italic-61" d="M 2175 413 
L 2153 413 
Q 2084 356 1989 270 
Q 1894 184 1766 106 
Q 1644 28 1500 -30 
Q 1356 -88 1188 -88 
Q 734 -88 476 237 
Q 219 563 219 1125 
Q 219 1513 362 1878 
Q 506 2244 759 2534 
Q 1000 2813 1331 2983 
Q 1663 3153 2013 3153 
Q 2234 3153 2436 3093 
Q 2638 3034 2753 2959 
L 3325 3106 
L 3363 3059 
L 2888 1044 
Q 2863 947 2836 808 
Q 2809 669 2809 603 
Q 2809 425 2884 362 
Q 2959 300 3138 300 
Q 3197 300 3306 319 
Q 3416 338 3475 359 
L 3428 159 
Q 3147 47 3009 -3 
Q 2872 -53 2675 -53 
Q 2450 -53 2319 78 
Q 2188 209 2175 413 
z
M 2622 2388 
Q 2622 2491 2600 2584 
Q 2578 2678 2509 2759 
Q 2447 2838 2337 2884 
Q 2228 2931 2063 2931 
Q 1834 2931 1618 2781 
Q 1403 2631 1231 2378 
Q 1069 2141 966 1803 
Q 863 1466 863 1119 
Q 863 928 884 781 
Q 906 634 969 513 
Q 1028 394 1140 328 
Q 1253 263 1425 263 
Q 1600 263 1792 361 
Q 1984 459 2225 706 
L 2622 2388 
z
" transform="scale(0.015625)"/>
      <path id="Georgia-Italic-6c" d="M 1875 4791 
L 1003 1028 
Q 975 909 950 790 
Q 925 672 925 597 
Q 925 419 1004 353 
Q 1084 288 1263 288 
Q 1325 288 1448 303 
Q 1572 319 1634 341 
L 1588 141 
Q 1306 28 1154 -19 
Q 1003 -66 813 -66 
Q 563 -66 433 64 
Q 303 194 303 384 
Q 303 456 317 534 
Q 331 613 356 731 
L 1116 4022 
Q 1138 4119 1145 4156 
Q 1153 4194 1153 4250 
Q 1153 4363 1115 4423 
Q 1078 4484 1009 4516 
Q 944 4544 844 4553 
Q 744 4563 641 4575 
L 684 4766 
L 1844 4838 
L 1875 4791 
z
" transform="scale(0.015625)"/>
      <path id="Georgia-Italic-20" transform="scale(0.015625)"/>
      <path id="Georgia-Italic-6e" d="M 3591 363 
L 3544 163 
Q 3263 50 3106 -1 
Q 2950 -53 2791 -53 
Q 2541 -53 2416 76 
Q 2291 206 2291 397 
Q 2291 466 2303 548 
Q 2316 631 2344 744 
L 2650 1909 
Q 2684 2044 2704 2153 
Q 2725 2263 2725 2328 
Q 2725 2538 2625 2659 
Q 2525 2781 2328 2781 
Q 2138 2781 1900 2656 
Q 1663 2531 1453 2294 
L 925 0 
L 344 0 
L 809 2025 
Q 825 2100 854 2242 
Q 884 2384 884 2472 
Q 884 2647 825 2706 
Q 766 2766 588 2766 
Q 519 2766 412 2742 
Q 306 2719 247 2703 
L 294 2903 
Q 538 3013 725 3066 
Q 913 3119 1047 3119 
Q 1294 3119 1400 2984 
Q 1506 2850 1513 2613 
L 1531 2613 
Q 1875 2888 2125 3020 
Q 2375 3153 2694 3153 
Q 2994 3153 3162 2979 
Q 3331 2806 3331 2525 
Q 3331 2469 3314 2325 
Q 3297 2181 3259 2041 
L 2997 1038 
Q 2969 938 2942 808 
Q 2916 678 2916 606 
Q 2916 428 2994 364 
Q 3072 300 3250 300 
Q 3309 300 3420 320 
Q 3531 341 3591 363 
z
" transform="scale(0.015625)"/>
      <path id="Georgia-Italic-75" d="M 2209 438 
L 2191 438 
Q 2047 322 1915 225 
Q 1784 128 1656 63 
Q 1506 -13 1384 -45 
Q 1263 -78 1066 -78 
Q 766 -78 600 95 
Q 434 269 434 550 
Q 434 625 446 728 
Q 459 831 506 1034 
L 750 2025 
Q 781 2163 801 2269 
Q 822 2375 822 2472 
Q 822 2647 764 2705 
Q 706 2763 528 2763 
Q 459 2763 353 2738 
Q 247 2713 188 2697 
L 234 2897 
Q 478 3006 664 3062 
Q 850 3119 963 3119 
Q 1213 3119 1330 3001 
Q 1447 2884 1447 2669 
Q 1447 2613 1434 2516 
Q 1422 2419 1397 2322 
L 1119 1166 
Q 1088 1034 1067 920 
Q 1047 806 1047 747 
Q 1047 538 1137 416 
Q 1228 294 1425 294 
Q 1625 294 1836 398 
Q 2047 503 2259 716 
L 2806 3069 
L 3350 3106 
L 3388 3059 
L 2922 1047 
Q 2891 919 2866 789 
Q 2841 659 2841 606 
Q 2841 428 2917 364 
Q 2994 300 3172 300 
Q 3231 300 3340 319 
Q 3450 338 3509 359 
L 3463 159 
Q 3203 53 3029 0 
Q 2856 -53 2709 -53 
Q 2456 -53 2332 94 
Q 2209 241 2209 438 
z
" transform="scale(0.015625)"/>
      <path id="Georgia-Italic-64" d="M 2203 428 
L 2181 428 
Q 2113 369 2003 273 
Q 1894 178 1775 106 
Q 1625 13 1498 -37 
Q 1372 -88 1188 -88 
Q 734 -88 476 239 
Q 219 566 219 1128 
Q 219 1522 358 1887 
Q 497 2253 738 2538 
Q 972 2813 1301 2983 
Q 1631 3153 1991 3153 
Q 2206 3153 2418 3097 
Q 2631 3041 2769 2959 
L 3013 4022 
Q 3031 4106 3039 4153 
Q 3047 4200 3047 4256 
Q 3047 4369 3001 4428 
Q 2956 4488 2875 4516 
Q 2800 4544 2669 4553 
Q 2538 4563 2431 4575 
L 2475 4766 
L 3741 4838 
L 3772 4791 
L 2906 1044 
Q 2881 941 2854 808 
Q 2828 675 2828 606 
Q 2828 428 2903 364 
Q 2978 300 3156 300 
Q 3216 300 3325 319 
Q 3434 338 3494 359 
L 3447 159 
Q 3184 41 3012 -6 
Q 2841 -53 2694 -53 
Q 2469 -53 2336 64 
Q 2203 181 2203 428 
z
M 2644 2419 
Q 2638 2509 2597 2595 
Q 2556 2681 2494 2750 
Q 2422 2828 2308 2879 
Q 2194 2931 2038 2931 
Q 1797 2931 1583 2781 
Q 1369 2631 1206 2381 
Q 1050 2141 956 1802 
Q 863 1463 863 1122 
Q 863 931 884 784 
Q 906 638 969 513 
Q 1028 397 1137 330 
Q 1247 263 1428 263 
Q 1600 263 1801 366 
Q 2003 469 2250 725 
L 2644 2419 
z
" transform="scale(0.015625)"/>
      <path id="Georgia-Italic-67" d="M 2216 422 
L 2194 428 
Q 2131 378 2017 287 
Q 1903 197 1778 128 
Q 1634 44 1487 -9 
Q 1341 -63 1163 -63 
Q 709 -63 464 257 
Q 219 578 219 1141 
Q 219 1528 361 1893 
Q 503 2259 750 2544 
Q 988 2819 1319 2986 
Q 1650 3153 2013 3153 
Q 2238 3153 2438 3095 
Q 2638 3038 2759 2959 
L 3331 3106 
L 3369 3059 
L 2844 597 
Q 2725 38 2539 -348 
Q 2353 -734 2109 -959 
Q 1859 -1191 1557 -1289 
Q 1256 -1388 875 -1388 
Q 616 -1388 452 -1347 
Q 288 -1306 194 -1241 
Q 100 -1175 67 -1092 
Q 34 -1009 34 -934 
Q 34 -794 118 -698 
Q 203 -603 350 -603 
Q 466 -603 547 -670 
Q 628 -738 678 -816 
Q 731 -897 781 -1009 
Q 831 -1122 856 -1178 
L 950 -1178 
Q 1122 -1178 1319 -1100 
Q 1516 -1022 1678 -847 
Q 1844 -666 1987 -361 
Q 2131 -56 2216 422 
z
M 2634 2419 
Q 2634 2506 2607 2598 
Q 2581 2691 2509 2769 
Q 2441 2844 2334 2887 
Q 2228 2931 2063 2931 
Q 1822 2931 1608 2786 
Q 1394 2641 1222 2388 
Q 1063 2150 963 1812 
Q 863 1475 863 1134 
Q 863 950 889 795 
Q 916 641 981 525 
Q 1047 409 1155 345 
Q 1263 281 1434 281 
Q 1653 281 1868 407 
Q 2084 534 2278 731 
L 2634 2419 
z
" transform="scale(0.015625)"/>
      <path id="Georgia-Italic-65" d="M 2894 2503 
Q 2894 2172 2686 1934 
Q 2478 1697 2081 1556 
Q 1791 1450 1494 1384 
Q 1197 1319 838 1275 
Q 838 781 1020 520 
Q 1203 259 1556 259 
Q 1869 259 2108 415 
Q 2347 572 2578 881 
L 2756 750 
Q 2506 369 2131 140 
Q 1756 -88 1353 -88 
Q 800 -88 508 221 
Q 216 531 216 1100 
Q 216 1494 339 1851 
Q 463 2209 700 2506 
Q 931 2797 1267 2975 
Q 1603 3153 2009 3153 
Q 2459 3153 2676 2970 
Q 2894 2788 2894 2503 
z
M 2319 2581 
Q 2319 2703 2284 2773 
Q 2250 2844 2197 2878 
Q 2141 2916 2078 2925 
Q 2016 2934 1950 2934 
Q 1575 2934 1258 2521 
Q 941 2109 856 1494 
Q 1075 1525 1350 1583 
Q 1625 1641 1806 1734 
Q 2066 1869 2192 2080 
Q 2319 2291 2319 2581 
z
" transform="scale(0.015625)"/>
     </defs>
     <use xlink:href="#Georgia-Italic-73"/>
     <use xlink:href="#Georgia-Italic-6d" transform="translate(43.115234 0)"/>
     <use xlink:href="#Georgia-Italic-61" transform="translate(131.054688 0)"/>
     <use xlink:href="#Georgia-Italic-6c" transform="translate(188.330078 0)"/>
     <use xlink:href="#Georgia-Italic-6c" transform="translate(216.845703 0)"/>
     <use xlink:href="#Georgia-Italic-20" transform="translate(245.361328 0)"/>
     <use xlink:href="#Georgia-Italic-6e" transform="translate(269.482422 0)"/>
     <use xlink:href="#Georgia-Italic-75" transform="translate(328.466797 0)"/>
     <use xlink:href="#Georgia-Italic-64" transform="translate(385.986328 0)"/>
     <use xlink:href="#Georgia-Italic-67" transform="translate(443.505859 0)"/>
     <use xlink:href="#Georgia-Italic-65" transform="translate(500.78125 0)"/>
    </g>
   </g>
   <g id="text_4">
    <!-- anchor  $\rightarrow$  decoded box -->
    <g style="fill: #161513" transform="translate(93.384 87.061789) scale(0.13 -0.13)">
     <defs>
      <path id="Cmsy10-21" d="M 481 1472 
Q 428 1472 393 1512 
Q 359 1553 359 1600 
Q 359 1647 393 1687 
Q 428 1728 481 1728 
L 5338 1728 
Q 5094 1903 4906 2133 
Q 4719 2363 4594 2627 
Q 4469 2891 4416 3188 
Q 4416 3272 4481 3272 
L 4609 3272 
Q 4631 3272 4648 3253 
Q 4666 3234 4672 3213 
Q 4725 2938 4839 2702 
Q 4953 2466 5125 2262 
Q 5297 2059 5509 1912 
Q 5722 1766 5991 1672 
Q 6034 1644 6034 1600 
Q 6034 1550 5991 1538 
Q 5656 1422 5378 1192 
Q 5100 963 4919 652 
Q 4738 341 4672 -13 
Q 4666 -34 4647 -53 
Q 4628 -72 4609 -72 
L 4481 -72 
Q 4416 -72 4416 13 
Q 4497 450 4740 836 
Q 4984 1222 5338 1472 
L 481 1472 
z
" transform="scale(0.015625)"/>
     </defs>
     <use xlink:href="#Georgia-61" transform="translate(0 0.40625)"/>
     <use xlink:href="#Georgia-6e" transform="translate(50.390625 0.40625)"/>
     <use xlink:href="#Georgia-63" transform="translate(109.472656 0.40625)"/>
     <use xlink:href="#Georgia-68" transform="translate(154.882812 0.40625)"/>
     <use xlink:href="#Georgia-6f" transform="translate(213.085938 0.40625)"/>
     <use xlink:href="#Georgia-72" transform="translate(266.992188 0.40625)"/>
     <use xlink:href="#Georgia-20" transform="translate(307.958984 0.40625)"/>
     <use xlink:href="#Georgia-20" transform="translate(332.080078 0.40625)"/>
     <use xlink:href="#Cmsy10-21" transform="translate(373.759766 0.40625)"/>
     <use xlink:href="#Georgia-20" transform="translate(491.318359 0.40625)"/>
     <use xlink:href="#Georgia-20" transform="translate(515.439453 0.40625)"/>
     <use xlink:href="#Georgia-64" transform="translate(539.560547 0.40625)"/>
     <use xlink:href="#Georgia-65" transform="translate(596.982422 0.40625)"/>
     <use xlink:href="#Georgia-63" transform="translate(645.322266 0.40625)"/>
     <use xlink:href="#Georgia-6f" transform="translate(690.732422 0.40625)"/>
     <use xlink:href="#Georgia-64" transform="translate(744.638672 0.40625)"/>
     <use xlink:href="#Georgia-65" transform="translate(802.060547 0.40625)"/>
     <use xlink:href="#Georgia-64" transform="translate(850.400391 0.40625)"/>
     <use xlink:href="#Georgia-20" transform="translate(907.822266 0.40625)"/>
     <use xlink:href="#Georgia-62" transform="translate(931.943359 0.40625)"/>
     <use xlink:href="#Georgia-6f" transform="translate(987.949219 0.40625)"/>
     <use xlink:href="#Georgia-78" transform="translate(1041.855469 0.40625)"/>
    </g>
   </g>
  </g>
  <g id="axes_2">
   <g id="text_5">
    <!-- network predicts deltas  $(t_x, t_y, t_w, t_h) = (0.1, -0.2, 0.3, -0.1)$ -->
    <g style="fill: #161513" transform="translate(460.531484 68.735376) scale(0.115 -0.115)">
     <defs>
      <path id="Georgia-74" d="M 2128 134 
Q 1925 50 1744 -8 
Q 1563 -66 1300 -66 
Q 913 -66 755 129 
Q 597 325 597 681 
L 597 2769 
L 41 2769 
L 41 3069 
L 609 3069 
L 609 4028 
L 1178 4028 
L 1178 3069 
L 2063 3069 
L 2063 2769 
L 1184 2769 
L 1184 1047 
Q 1184 853 1198 723 
Q 1213 594 1266 497 
Q 1316 406 1416 359 
Q 1516 313 1684 313 
Q 1763 313 1914 327 
Q 2066 341 2128 363 
L 2128 134 
z
" transform="scale(0.015625)"/>
      <path id="Georgia-77" d="M 4816 2881 
Q 4684 2869 4532 2772 
Q 4381 2675 4313 2481 
Q 4156 2022 4017 1611 
Q 3878 1200 3706 688 
Q 3650 525 3592 337 
Q 3534 150 3488 -22 
L 3219 -22 
L 2391 2247 
L 1556 -22 
L 1300 -22 
Q 1066 672 842 1355 
Q 619 2038 447 2544 
Q 397 2691 256 2775 
Q 116 2859 -16 2875 
L -16 3081 
L 1359 3081 
L 1359 2863 
Q 1256 2859 1136 2828 
Q 1016 2797 1016 2725 
Q 1016 2713 1027 2672 
Q 1038 2631 1053 2584 
Q 1153 2256 1279 1851 
Q 1406 1447 1606 800 
L 2394 3019 
L 2694 3019 
L 3497 831 
Q 3631 1250 3764 1642 
Q 3897 2034 3997 2378 
Q 4019 2459 4039 2526 
Q 4059 2594 4059 2659 
Q 4059 2716 4009 2759 
Q 3959 2803 3888 2831 
Q 3825 2856 3751 2868 
Q 3678 2881 3644 2881 
L 3644 3081 
L 4816 3081 
L 4816 2881 
z
" transform="scale(0.015625)"/>
      <path id="Georgia-6b" d="M 3491 0 
L 2559 0 
Q 2316 353 2037 756 
Q 1759 1159 1459 1541 
L 1203 1300 
L 1203 569 
Q 1203 456 1243 382 
Q 1284 309 1375 275 
Q 1450 244 1519 228 
Q 1588 213 1678 206 
L 1678 0 
L 166 0 
L 166 206 
Q 238 213 316 220 
Q 394 228 447 244 
Q 534 272 578 342 
Q 622 413 622 525 
L 622 4106 
Q 622 4222 573 4323 
Q 525 4425 447 4478 
Q 381 4528 242 4543 
Q 103 4559 19 4566 
L 19 4766 
L 1159 4838 
L 1203 4791 
L 1203 1531 
Q 1447 1775 1730 2054 
Q 2013 2334 2206 2553 
Q 2231 2581 2261 2626 
Q 2291 2672 2291 2700 
Q 2291 2784 2155 2825 
Q 2019 2866 1894 2881 
L 1894 3081 
L 3250 3081 
L 3250 2888 
Q 2988 2809 2786 2692 
Q 2584 2575 2478 2481 
Q 2403 2419 2265 2278 
Q 2128 2138 1881 1909 
Q 2138 1594 2458 1153 
Q 2778 713 2925 516 
Q 3063 331 3172 275 
Q 3281 219 3491 206 
L 3491 0 
z
" transform="scale(0.015625)"/>
      <path id="Georgia-70" d="M 3041 2716 
Q 3225 2497 3326 2208 
Q 3428 1919 3428 1547 
Q 3428 1181 3306 879 
Q 3184 578 2984 366 
Q 2775 150 2519 34 
Q 2263 -81 1975 -81 
Q 1697 -81 1519 -18 
Q 1341 44 1228 128 
L 1203 128 
L 1203 -797 
Q 1203 -909 1247 -984 
Q 1291 -1059 1381 -1094 
Q 1456 -1122 1595 -1148 
Q 1734 -1175 1825 -1178 
L 1825 -1388 
L 103 -1388 
L 103 -1178 
Q 200 -1172 290 -1162 
Q 381 -1153 453 -1131 
Q 547 -1100 584 -1022 
Q 622 -944 622 -838 
L 622 2441 
Q 622 2534 575 2621 
Q 528 2709 453 2763 
Q 397 2800 297 2820 
Q 197 2841 103 2847 
L 103 3050 
L 1153 3119 
L 1197 3081 
L 1197 2734 
L 1222 2728 
Q 1384 2916 1625 3041 
Q 1866 3166 2103 3166 
Q 2391 3166 2630 3044 
Q 2869 2922 3041 2716 
z
M 2531 500 
Q 2656 694 2715 950 
Q 2775 1206 2775 1522 
Q 2775 1753 2725 1993 
Q 2675 2234 2569 2413 
Q 2463 2594 2291 2706 
Q 2119 2819 1878 2819 
Q 1647 2819 1484 2717 
Q 1322 2616 1203 2475 
L 1203 653 
Q 1231 569 1295 478 
Q 1359 388 1438 322 
Q 1534 244 1646 195 
Q 1759 147 1922 147 
Q 2097 147 2259 239 
Q 2422 331 2531 500 
z
" transform="scale(0.015625)"/>
      <path id="Georgia-69" d="M 1722 0 
L 231 0 
L 231 206 
Q 303 213 379 219 
Q 456 225 513 244 
Q 600 272 642 342 
Q 684 413 684 525 
L 684 2428 
Q 684 2528 639 2611 
Q 594 2694 513 2750 
Q 453 2788 340 2814 
Q 228 2841 134 2847 
L 134 3050 
L 1222 3119 
L 1266 3075 
L 1266 563 
Q 1266 453 1308 381 
Q 1350 309 1441 275 
Q 1509 247 1575 230 
Q 1641 213 1722 206 
L 1722 0 
z
M 1328 4334 
Q 1328 4156 1211 4023 
Q 1094 3891 922 3891 
Q 763 3891 645 4017 
Q 528 4144 528 4306 
Q 528 4478 645 4606 
Q 763 4734 922 4734 
Q 1100 4734 1214 4614 
Q 1328 4494 1328 4334 
z
" transform="scale(0.015625)"/>
      <path id="Georgia-73" d="M 2259 1509 
Q 2388 1397 2456 1250 
Q 2525 1103 2525 891 
Q 2525 463 2204 191 
Q 1884 -81 1375 -81 
Q 1106 -81 879 16 
Q 653 113 556 194 
L 494 -9 
L 259 -9 
L 228 1063 
L 444 1063 
Q 469 941 550 778 
Q 631 616 747 484 
Q 869 347 1039 253 
Q 1209 159 1422 159 
Q 1722 159 1884 295 
Q 2047 431 2047 684 
Q 2047 816 1995 911 
Q 1944 1006 1844 1078 
Q 1741 1150 1591 1208 
Q 1441 1266 1256 1322 
Q 1109 1366 929 1442 
Q 750 1519 622 1622 
Q 484 1731 396 1890 
Q 309 2050 309 2266 
Q 309 2644 590 2906 
Q 872 3169 1344 3169 
Q 1525 3169 1714 3122 
Q 1903 3075 2022 3009 
L 2094 3172 
L 2319 3172 
L 2366 2181 
L 2150 2181 
Q 2084 2513 1867 2720 
Q 1650 2928 1338 2928 
Q 1081 2928 934 2800 
Q 788 2672 788 2491 
Q 788 2350 836 2256 
Q 884 2163 981 2097 
Q 1075 2034 1217 1979 
Q 1359 1925 1569 1856 
Q 1775 1791 1958 1703 
Q 2141 1616 2259 1509 
z
" transform="scale(0.015625)"/>
      <path id="Georgia-6c" d="M 1669 0 
L 166 0 
L 166 206 
Q 238 213 319 220 
Q 400 228 453 244 
Q 541 272 584 342 
Q 628 413 628 525 
L 628 4094 
Q 628 4206 579 4304 
Q 531 4403 453 4459 
Q 397 4497 247 4528 
Q 97 4559 6 4566 
L 6 4766 
L 1166 4838 
L 1209 4791 
L 1209 563 
Q 1209 453 1250 383 
Q 1291 313 1381 275 
Q 1450 244 1517 228 
Q 1584 213 1669 206 
L 1669 0 
z
" transform="scale(0.015625)"/>
      <path id="Cmr10-28" d="M 1984 -1588 
Q 1628 -1306 1370 -942 
Q 1113 -578 948 -165 
Q 784 247 703 697 
Q 622 1147 622 1600 
Q 622 2059 703 2509 
Q 784 2959 951 3375 
Q 1119 3791 1378 4153 
Q 1638 4516 1984 4788 
Q 1984 4800 2016 4800 
L 2075 4800 
Q 2094 4800 2109 4783 
Q 2125 4766 2125 4744 
Q 2125 4716 2113 4703 
Q 1800 4397 1592 4047 
Q 1384 3697 1257 3301 
Q 1131 2906 1075 2482 
Q 1019 2059 1019 1600 
Q 1019 -434 2106 -1491 
Q 2125 -1509 2125 -1544 
Q 2125 -1559 2108 -1579 
Q 2091 -1600 2075 -1600 
L 2016 -1600 
Q 1984 -1600 1984 -1588 
z
" transform="scale(0.015625)"/>
      <path id="Cmmi10-74" d="M 397 519 
Q 397 613 416 697 
L 878 2534 
L 206 2534 
Q 141 2534 141 2619 
Q 166 2759 225 2759 
L 934 2759 
L 1191 3803 
Q 1216 3888 1291 3947 
Q 1366 4006 1459 4006 
Q 1541 4006 1595 3957 
Q 1650 3909 1650 3828 
Q 1650 3809 1648 3798 
Q 1647 3788 1644 3775 
L 1388 2759 
L 2047 2759 
Q 2113 2759 2113 2675 
Q 2109 2659 2100 2621 
Q 2091 2584 2075 2559 
Q 2059 2534 2028 2534 
L 1331 2534 
L 872 684 
Q 825 503 825 372 
Q 825 97 1013 97 
Q 1294 97 1511 361 
Q 1728 625 1844 941 
Q 1869 978 1894 978 
L 1972 978 
Q 1997 978 2012 961 
Q 2028 944 2028 922 
Q 2028 909 2022 903 
Q 1881 516 1612 222 
Q 1344 -72 997 -72 
Q 744 -72 570 93 
Q 397 259 397 519 
z
" transform="scale(0.015625)"/>
      <path id="Cmmi10-78" d="M 500 184 
Q 613 97 819 97 
Q 1019 97 1172 289 
Q 1325 481 1381 709 
L 1672 1844 
Q 1741 2153 1741 2266 
Q 1741 2425 1652 2544 
Q 1563 2663 1403 2663 
Q 1200 2663 1022 2536 
Q 844 2409 722 2214 
Q 600 2019 550 1819 
Q 538 1778 500 1778 
L 422 1778 
Q 372 1778 372 1838 
L 372 1856 
Q 434 2094 584 2320 
Q 734 2547 951 2687 
Q 1169 2828 1416 2828 
Q 1650 2828 1839 2703 
Q 2028 2578 2106 2363 
Q 2216 2559 2386 2693 
Q 2556 2828 2759 2828 
Q 2897 2828 3040 2779 
Q 3184 2731 3275 2631 
Q 3366 2531 3366 2381 
Q 3366 2219 3261 2101 
Q 3156 1984 2994 1984 
Q 2891 1984 2822 2050 
Q 2753 2116 2753 2216 
Q 2753 2350 2845 2451 
Q 2938 2553 3066 2572 
Q 2950 2663 2747 2663 
Q 2541 2663 2389 2472 
Q 2238 2281 2175 2047 
L 1894 916 
Q 1825 659 1825 494 
Q 1825 331 1917 214 
Q 2009 97 2163 97 
Q 2463 97 2698 361 
Q 2934 625 3009 941 
Q 3022 978 3059 978 
L 3138 978 
Q 3163 978 3178 961 
Q 3194 944 3194 922 
Q 3194 916 3188 903 
Q 3097 522 2806 225 
Q 2516 -72 2150 -72 
Q 1916 -72 1727 54 
Q 1538 181 1459 397 
Q 1359 209 1182 68 
Q 1006 -72 806 -72 
Q 669 -72 523 -23 
Q 378 25 287 125 
Q 197 225 197 378 
Q 197 528 301 651 
Q 406 775 563 775 
Q 669 775 741 711 
Q 813 647 813 544 
Q 813 409 723 309 
Q 634 209 500 184 
z
" transform="scale(0.015625)"/>
      <path id="Cmmi10-3b" d="M 634 -1153 
Q 634 -1125 659 -1100 
Q 891 -878 1019 -587 
Q 1147 -297 1147 25 
L 1147 103 
Q 1044 0 891 0 
Q 744 0 641 103 
Q 538 206 538 353 
Q 538 503 641 603 
Q 744 703 891 703 
Q 1119 703 1216 492 
Q 1313 281 1313 25 
Q 1313 -331 1170 -651 
Q 1028 -972 769 -1228 
Q 744 -1241 728 -1241 
Q 697 -1241 665 -1212 
Q 634 -1184 634 -1153 
z
" transform="scale(0.015625)"/>
      <path id="Cmmi10-79" d="M 538 -916 
Q 672 -1147 1006 -1147 
Q 1309 -1147 1531 -934 
Q 1753 -722 1889 -420 
Q 2025 -119 2100 197 
Q 1816 -72 1484 -72 
Q 1231 -72 1053 15 
Q 875 103 776 276 
Q 678 450 678 697 
Q 678 906 734 1126 
Q 791 1347 892 1617 
Q 994 1888 1069 2088 
Q 1153 2322 1153 2472 
Q 1153 2663 1013 2663 
Q 759 2663 595 2402 
Q 431 2141 353 1819 
Q 341 1778 300 1778 
L 225 1778 
Q 172 1778 172 1838 
L 172 1856 
Q 275 2238 487 2533 
Q 700 2828 1025 2828 
Q 1253 2828 1411 2678 
Q 1569 2528 1569 2297 
Q 1569 2178 1516 2047 
Q 1488 1969 1388 1706 
Q 1288 1444 1234 1272 
Q 1181 1100 1147 934 
Q 1113 769 1113 603 
Q 1113 391 1203 244 
Q 1294 97 1491 97 
Q 1888 97 2203 581 
L 2688 2553 
Q 2709 2638 2787 2698 
Q 2866 2759 2956 2759 
Q 3034 2759 3092 2709 
Q 3150 2659 3150 2578 
Q 3150 2541 3144 2528 
L 2509 -19 
Q 2425 -347 2200 -647 
Q 1975 -947 1658 -1130 
Q 1341 -1313 997 -1313 
Q 831 -1313 668 -1248 
Q 506 -1184 406 -1056 
Q 306 -928 306 -756 
Q 306 -581 409 -453 
Q 513 -325 684 -325 
Q 788 -325 858 -389 
Q 928 -453 928 -556 
Q 928 -703 818 -812 
Q 709 -922 563 -922 
Q 556 -919 550 -917 
Q 544 -916 538 -916 
z
" transform="scale(0.015625)"/>
      <path id="Cmmi10-77" d="M 691 744 
Q 691 878 727 1053 
Q 763 1228 806 1364 
Q 850 1500 954 1781 
Q 1059 2063 1069 2088 
Q 1153 2322 1153 2472 
Q 1153 2663 1013 2663 
Q 759 2663 595 2402 
Q 431 2141 353 1819 
Q 341 1778 300 1778 
L 225 1778 
Q 172 1778 172 1838 
L 172 1856 
Q 275 2238 487 2533 
Q 700 2828 1025 2828 
Q 1253 2828 1411 2678 
Q 1569 2528 1569 2297 
Q 1569 2178 1516 2047 
Q 1441 1853 1339 1581 
Q 1238 1309 1181 1087 
Q 1125 866 1125 659 
Q 1125 409 1256 253 
Q 1388 97 1638 97 
Q 1978 97 2203 616 
Q 2194 653 2194 722 
Q 2194 894 2247 1113 
L 2606 2553 
Q 2628 2638 2706 2698 
Q 2784 2759 2875 2759 
Q 2950 2759 3008 2709 
Q 3066 2659 3066 2578 
Q 3066 2541 3059 2528 
L 2700 1100 
Q 2638 844 2638 641 
Q 2638 400 2748 248 
Q 2859 97 3097 97 
Q 3509 97 3775 641 
Q 3875 834 3998 1212 
Q 4122 1591 4122 1791 
Q 4122 1975 4062 2083 
Q 4003 2191 3898 2316 
Q 3794 2441 3794 2503 
Q 3794 2625 3898 2729 
Q 4003 2834 4128 2834 
Q 4281 2834 4348 2693 
Q 4416 2553 4416 2375 
Q 4416 2159 4344 1826 
Q 4272 1494 4162 1158 
Q 4053 822 3956 622 
Q 3606 -72 3084 -72 
Q 2816 -72 2594 31 
Q 2372 134 2266 359 
Q 2163 175 1995 51 
Q 1828 -72 1625 -72 
Q 1203 -72 947 129 
Q 691 331 691 744 
z
" transform="scale(0.015625)"/>
      <path id="Cmmi10-68" d="M 341 116 
Q 341 153 347 172 
L 1275 3872 
Q 1300 3981 1306 4044 
Q 1306 4147 891 4147 
Q 825 4147 825 4231 
Q 828 4247 839 4287 
Q 850 4328 867 4350 
Q 884 4372 916 4372 
L 1778 4441 
L 1797 4441 
Q 1797 4434 1819 4423 
Q 1841 4413 1844 4409 
Q 1856 4378 1856 4359 
L 1356 2363 
Q 1750 2828 2291 2828 
Q 2516 2828 2680 2750 
Q 2844 2672 2936 2514 
Q 3028 2356 3028 2138 
Q 3028 1875 2911 1503 
Q 2794 1131 2619 672 
Q 2528 463 2528 288 
Q 2528 97 2675 97 
Q 2925 97 3092 364 
Q 3259 631 3328 941 
Q 3341 978 3378 978 
L 3456 978 
Q 3481 978 3497 961 
Q 3513 944 3513 922 
Q 3513 916 3506 903 
Q 3450 672 3339 448 
Q 3228 225 3059 76 
Q 2891 -72 2663 -72 
Q 2438 -72 2278 83 
Q 2119 238 2119 459 
Q 2119 578 2169 709 
Q 2350 1191 2470 1569 
Q 2591 1947 2591 2234 
Q 2591 2419 2519 2541 
Q 2447 2663 2278 2663 
Q 1934 2663 1678 2452 
Q 1422 2241 1234 1894 
L 800 147 
Q 775 50 703 -11 
Q 631 -72 538 -72 
Q 456 -72 398 -17 
Q 341 38 341 116 
z
" transform="scale(0.015625)"/>
      <path id="Cmr10-29" d="M 416 -1600 
Q 359 -1600 359 -1544 
Q 359 -1516 372 -1503 
Q 1466 -434 1466 1600 
Q 1466 3634 384 4691 
Q 359 4706 359 4744 
Q 359 4766 376 4783 
Q 394 4800 416 4800 
L 475 4800 
Q 494 4800 506 4788 
Q 966 4425 1272 3906 
Q 1578 3388 1720 2800 
Q 1863 2213 1863 1600 
Q 1863 1147 1786 708 
Q 1709 269 1542 -157 
Q 1375 -584 1119 -945 
Q 863 -1306 506 -1588 
Q 494 -1600 475 -1600 
L 416 -1600 
z
" transform="scale(0.015625)"/>
      <path id="Cmr10-3d" d="M 481 850 
Q 428 850 393 890 
Q 359 931 359 978 
Q 359 1031 393 1068 
Q 428 1106 481 1106 
L 4500 1106 
Q 4547 1106 4581 1068 
Q 4616 1031 4616 978 
Q 4616 931 4581 890 
Q 4547 850 4500 850 
L 481 850 
z
M 481 2094 
Q 428 2094 393 2131 
Q 359 2169 359 2222 
Q 359 2269 393 2309 
Q 428 2350 481 2350 
L 4500 2350 
Q 4547 2350 4581 2309 
Q 4616 2269 4616 2222 
Q 4616 2169 4581 2131 
Q 4547 2094 4500 2094 
L 481 2094 
z
" transform="scale(0.015625)"/>
      <path id="Cmr10-30" d="M 1600 -141 
Q 816 -141 533 504 
Q 250 1150 250 2041 
Q 250 2597 351 3087 
Q 453 3578 754 3920 
Q 1056 4263 1600 4263 
Q 2022 4263 2290 4056 
Q 2559 3850 2700 3523 
Q 2841 3197 2892 2823 
Q 2944 2450 2944 2041 
Q 2944 1491 2842 1011 
Q 2741 531 2444 195 
Q 2147 -141 1600 -141 
z
M 1600 25 
Q 1956 25 2131 390 
Q 2306 756 2347 1200 
Q 2388 1644 2388 2144 
Q 2388 2625 2347 3031 
Q 2306 3438 2132 3767 
Q 1959 4097 1600 4097 
Q 1238 4097 1063 3765 
Q 888 3434 847 3029 
Q 806 2625 806 2144 
Q 806 1788 823 1472 
Q 841 1156 916 820 
Q 991 484 1158 254 
Q 1325 25 1600 25 
z
" transform="scale(0.015625)"/>
      <path id="Cmmi10-3a" d="M 538 353 
Q 538 497 644 600 
Q 750 703 891 703 
Q 978 703 1062 656 
Q 1147 609 1194 525 
Q 1241 441 1241 353 
Q 1241 213 1137 106 
Q 1034 0 891 0 
Q 750 0 644 106 
Q 538 213 538 353 
z
" transform="scale(0.015625)"/>
      <path id="Cmr10-31" d="M 594 0 
L 594 225 
Q 1394 225 1394 428 
L 1394 3788 
Q 1063 3628 556 3628 
L 556 3853 
Q 1341 3853 1741 4263 
L 1831 4263 
Q 1853 4263 1873 4245 
Q 1894 4228 1894 4206 
L 1894 428 
Q 1894 225 2694 225 
L 2694 0 
L 594 0 
z
" transform="scale(0.015625)"/>
      <path id="Cmsy10-a1" d="M 653 1472 
Q 600 1472 565 1512 
Q 531 1553 531 1600 
Q 531 1647 565 1687 
Q 600 1728 653 1728 
L 4325 1728 
Q 4375 1728 4408 1687 
Q 4441 1647 4441 1600 
Q 4441 1553 4408 1512 
Q 4375 1472 4325 1472 
L 653 1472 
z
" transform="scale(0.015625)"/>
      <path id="Cmr10-32" d="M 319 0 
L 319 172 
Q 319 188 331 206 
L 1325 1306 
Q 1550 1550 1690 1715 
Q 1831 1881 1968 2097 
Q 2106 2313 2186 2536 
Q 2266 2759 2266 3009 
Q 2266 3272 2169 3511 
Q 2072 3750 1880 3894 
Q 1688 4038 1416 4038 
Q 1138 4038 916 3870 
Q 694 3703 603 3438 
Q 628 3444 672 3444 
Q 816 3444 917 3347 
Q 1019 3250 1019 3097 
Q 1019 2950 917 2848 
Q 816 2747 672 2747 
Q 522 2747 420 2851 
Q 319 2956 319 3097 
Q 319 3338 409 3548 
Q 500 3759 670 3923 
Q 841 4088 1055 4175 
Q 1269 4263 1509 4263 
Q 1875 4263 2190 4108 
Q 2506 3953 2690 3670 
Q 2875 3388 2875 3009 
Q 2875 2731 2753 2481 
Q 2631 2231 2440 2026 
Q 2250 1822 1953 1562 
Q 1656 1303 1563 1216 
L 838 519 
L 1453 519 
Q 1906 519 2211 526 
Q 2516 534 2534 550 
Q 2609 631 2688 1141 
L 2875 1141 
L 2694 0 
L 319 0 
z
" transform="scale(0.015625)"/>
      <path id="Cmr10-33" d="M 609 494 
Q 759 275 1012 169 
Q 1266 63 1556 63 
Q 1928 63 2084 380 
Q 2241 697 2241 1100 
Q 2241 1281 2208 1462 
Q 2175 1644 2097 1800 
Q 2019 1956 1883 2050 
Q 1747 2144 1550 2144 
L 1125 2144 
Q 1069 2144 1069 2203 
L 1069 2259 
Q 1069 2309 1125 2309 
L 1478 2338 
Q 1703 2338 1851 2506 
Q 2000 2675 2069 2917 
Q 2138 3159 2138 3378 
Q 2138 3684 1994 3881 
Q 1850 4078 1556 4078 
Q 1313 4078 1091 3986 
Q 869 3894 738 3706 
Q 750 3709 759 3711 
Q 769 3713 781 3713 
Q 925 3713 1022 3613 
Q 1119 3513 1119 3372 
Q 1119 3234 1022 3134 
Q 925 3034 781 3034 
Q 641 3034 541 3134 
Q 441 3234 441 3372 
Q 441 3647 606 3850 
Q 772 4053 1033 4158 
Q 1294 4263 1556 4263 
Q 1750 4263 1965 4205 
Q 2181 4147 2356 4039 
Q 2531 3931 2642 3762 
Q 2753 3594 2753 3378 
Q 2753 3109 2633 2881 
Q 2513 2653 2303 2487 
Q 2094 2322 1844 2241 
Q 2122 2188 2372 2031 
Q 2622 1875 2773 1631 
Q 2925 1388 2925 1106 
Q 2925 753 2731 467 
Q 2538 181 2222 20 
Q 1906 -141 1556 -141 
Q 1256 -141 954 -26 
Q 653 88 461 316 
Q 269 544 269 863 
Q 269 1022 375 1128 
Q 481 1234 641 1234 
Q 744 1234 830 1186 
Q 916 1138 964 1050 
Q 1013 963 1013 863 
Q 1013 706 903 600 
Q 794 494 641 494 
L 609 494 
z
" transform="scale(0.015625)"/>
     </defs>
     <use xlink:href="#Georgia-6e" transform="translate(0 0.40625)"/>
     <use xlink:href="#Georgia-65" transform="translate(59.082031 0.40625)"/>
     <use xlink:href="#Georgia-74" transform="translate(107.421875 0.40625)"/>
     <use xlink:href="#Georgia-77" transform="translate(141.943359 0.40625)"/>
     <use xlink:href="#Georgia-6f" transform="translate(215.673828 0.40625)"/>
     <use xlink:href="#Georgia-72" transform="translate(269.580078 0.40625)"/>
     <use xlink:href="#Georgia-6b" transform="translate(310.546875 0.40625)"/>
     <use xlink:href="#Georgia-20" transform="translate(364.111328 0.40625)"/>
     <use xlink:href="#Georgia-70" transform="translate(388.232422 0.40625)"/>
     <use xlink:href="#Georgia-72" transform="translate(445.361328 0.40625)"/>
     <use xlink:href="#Georgia-65" transform="translate(486.328125 0.40625)"/>
     <use xlink:href="#Georgia-64" transform="translate(534.667969 0.40625)"/>
     <use xlink:href="#Georgia-69" transform="translate(592.089844 0.40625)"/>
     <use xlink:href="#Georgia-63" transform="translate(621.386719 0.40625)"/>
     <use xlink:href="#Georgia-74" transform="translate(666.796875 0.40625)"/>
     <use xlink:href="#Georgia-73" transform="translate(701.318359 0.40625)"/>
     <use xlink:href="#Georgia-20" transform="translate(744.53125 0.40625)"/>
     <use xlink:href="#Georgia-64" transform="translate(768.652344 0.40625)"/>
     <use xlink:href="#Georgia-65" transform="translate(826.074219 0.40625)"/>
     <use xlink:href="#Georgia-6c" transform="translate(874.414062 0.40625)"/>
     <use xlink:href="#Georgia-74" transform="translate(903.027344 0.40625)"/>
     <use xlink:href="#Georgia-61" transform="translate(937.548828 0.40625)"/>
     <use xlink:href="#Georgia-73" transform="translate(987.939453 0.40625)"/>
     <use xlink:href="#Georgia-20" transform="translate(1031.152344 0.40625)"/>
     <use xlink:href="#Georgia-20" transform="translate(1055.273438 0.40625)"/>
     <use xlink:href="#Cmr10-28" transform="translate(1079.394531 0.40625)"/>
     <use xlink:href="#Cmmi10-74" transform="translate(1118.212891 0.40625)"/>
     <use xlink:href="#Cmmi10-78" transform="translate(1154.296875 -16.6) scale(0.7)"/>
     <use xlink:href="#Cmmi10-3b" transform="translate(1200.630273 0.40625)"/>
     <use xlink:href="#Cmmi10-74" transform="translate(1245.874414 0.40625)"/>
     <use xlink:href="#Cmmi10-79" transform="translate(1281.958398 -16.6) scale(0.7)"/>
     <use xlink:href="#Cmmi10-3b" transform="translate(1322.652148 0.40625)"/>
     <use xlink:href="#Cmmi10-74" transform="translate(1367.896289 0.40625)"/>
     <use xlink:href="#Cmmi10-77" transform="translate(1403.980273 -16.6) scale(0.7)"/>
     <use xlink:href="#Cmmi10-3b" transform="translate(1460.39668 0.40625)"/>
     <use xlink:href="#Cmmi10-74" transform="translate(1505.64082 0.40625)"/>
     <use xlink:href="#Cmmi10-68" transform="translate(1541.724805 -16.6) scale(0.7)"/>
     <use xlink:href="#Cmr10-29" transform="translate(1588.43418 0.40625)"/>
     <use xlink:href="#Cmr10-3d" transform="translate(1644.811133 0.40625)"/>
     <use xlink:href="#Cmr10-28" transform="translate(1740.055273 0.40625)"/>
     <use xlink:href="#Cmr10-30" transform="translate(1778.873633 0.40625)"/>
     <use xlink:href="#Cmmi10-3a" transform="translate(1828.873633 0.40625)"/>
     <use xlink:href="#Cmr10-31" transform="translate(1856.55918 0.40625)"/>
     <use xlink:href="#Cmmi10-3b" transform="translate(1906.55918 0.40625)"/>
     <use xlink:href="#Cmsy10-a1" transform="translate(1969.361914 0.40625)"/>
     <use xlink:href="#Cmr10-30" transform="translate(2064.606055 0.40625)"/>
     <use xlink:href="#Cmmi10-3a" transform="translate(2114.606055 0.40625)"/>
     <use xlink:href="#Cmr10-32" transform="translate(2142.291602 0.40625)"/>
     <use xlink:href="#Cmmi10-3b" transform="translate(2192.291602 0.40625)"/>
     <use xlink:href="#Cmr10-30" transform="translate(2237.535742 0.40625)"/>
     <use xlink:href="#Cmmi10-3a" transform="translate(2287.535742 0.40625)"/>
     <use xlink:href="#Cmr10-33" transform="translate(2315.221289 0.40625)"/>
     <use xlink:href="#Cmmi10-3b" transform="translate(2365.221289 0.40625)"/>
     <use xlink:href="#Cmsy10-a1" transform="translate(2428.024023 0.40625)"/>
     <use xlink:href="#Cmr10-30" transform="translate(2523.268164 0.40625)"/>
     <use xlink:href="#Cmmi10-3a" transform="translate(2573.268164 0.40625)"/>
     <use xlink:href="#Cmr10-31" transform="translate(2600.953711 0.40625)"/>
     <use xlink:href="#Cmr10-29" transform="translate(2650.953711 0.40625)"/>
    </g>
   </g>
   <g id="text_6">
    <!-- $b_x = x_a + t_x\, w_a$ -->
    <g style="fill: #b85a3e" transform="translate(465.910934 106.905816) scale(0.135 -0.135)">
     <defs>
      <path id="Cmmi10-62" d="M 1106 -72 
Q 719 -72 503 231 
Q 288 534 288 941 
Q 288 1000 317 1173 
Q 347 1347 347 1388 
L 966 3872 
Q 991 3981 997 4044 
Q 997 4147 581 4147 
Q 519 4147 519 4231 
Q 522 4247 533 4287 
Q 544 4328 561 4350 
Q 578 4372 609 4372 
L 1472 4441 
Q 1550 4441 1550 4359 
L 1075 2472 
Q 1438 2828 1806 2828 
Q 2078 2828 2273 2684 
Q 2469 2541 2566 2306 
Q 2663 2072 2663 1806 
Q 2663 1497 2542 1167 
Q 2422 838 2209 555 
Q 1997 272 1712 100 
Q 1428 -72 1106 -72 
z
M 1119 97 
Q 1338 97 1528 280 
Q 1719 463 1838 691 
Q 1966 947 2077 1386 
Q 2188 1825 2188 2088 
Q 2188 2316 2092 2489 
Q 1997 2663 1791 2663 
Q 1559 2663 1348 2492 
Q 1138 2322 978 2088 
L 800 1363 
Q 697 959 691 716 
Q 691 475 795 286 
Q 900 97 1119 97 
z
" transform="scale(0.015625)"/>
      <path id="Cmmi10-61" d="M 1113 -72 
Q 709 -72 476 233 
Q 244 538 244 953 
Q 244 1363 456 1803 
Q 669 2244 1030 2536 
Q 1391 2828 1806 2828 
Q 1997 2828 2147 2725 
Q 2297 2622 2381 2444 
Q 2453 2700 2663 2700 
Q 2744 2700 2798 2651 
Q 2853 2603 2853 2522 
Q 2853 2503 2851 2493 
Q 2850 2484 2847 2472 
L 2400 684 
Q 2356 494 2356 372 
Q 2356 97 2541 97 
Q 2741 97 2845 351 
Q 2950 606 3022 941 
Q 3034 978 3072 978 
L 3150 978 
Q 3175 978 3190 956 
Q 3206 934 3206 916 
Q 3094 469 2961 198 
Q 2828 -72 2528 -72 
Q 2313 -72 2147 54 
Q 1981 181 1941 391 
Q 1528 -72 1113 -72 
z
M 1119 97 
Q 1350 97 1567 270 
Q 1784 444 1941 678 
Q 1947 684 1947 697 
L 2291 2088 
L 2297 2106 
Q 2259 2334 2132 2498 
Q 2006 2663 1791 2663 
Q 1575 2663 1389 2486 
Q 1203 2309 1075 2069 
Q 950 1813 836 1366 
Q 722 919 722 672 
Q 722 450 817 273 
Q 913 97 1119 97 
z
" transform="scale(0.015625)"/>
      <path id="Cmr10-2b" d="M 481 1472 
Q 428 1472 393 1512 
Q 359 1553 359 1600 
Q 359 1647 393 1687 
Q 428 1728 481 1728 
L 2363 1728 
L 2363 3616 
Q 2363 3666 2400 3698 
Q 2438 3731 2491 3731 
Q 2538 3731 2578 3698 
Q 2619 3666 2619 3616 
L 2619 1728 
L 4500 1728 
Q 4547 1728 4581 1687 
Q 4616 1647 4616 1600 
Q 4616 1553 4581 1512 
Q 4547 1472 4500 1472 
L 2619 1472 
L 2619 -416 
Q 2619 -466 2578 -498 
Q 2538 -531 2491 -531 
Q 2438 -531 2400 -498 
Q 2363 -466 2363 -416 
L 2363 1472 
L 481 1472 
z
" transform="scale(0.015625)"/>
     </defs>
     <use xlink:href="#Cmmi10-62" transform="translate(0 0.609375)"/>
     <use xlink:href="#Cmmi10-78" transform="translate(42.919922 -16.396875) scale(0.7)"/>
     <use xlink:href="#Cmr10-3d" transform="translate(106.811914 0.609375)"/>
     <use xlink:href="#Cmmi10-78" transform="translate(202.056055 0.609375)"/>
     <use xlink:href="#Cmmi10-61" transform="translate(259.136133 -16.396875) scale(0.7)"/>
     <use xlink:href="#Cmr10-2b" transform="translate(320.020312 0.609375)"/>
     <use xlink:href="#Cmmi10-74" transform="translate(415.264453 0.609375)"/>
     <use xlink:href="#Cmmi10-78" transform="translate(451.348437 -16.396875) scale(0.7)"/>
     <use xlink:href="#Cmmi10-77" transform="translate(512.31429 0.609375)"/>
     <use xlink:href="#Cmmi10-61" transform="translate(583.798665 -16.396875) scale(0.7)"/>
    </g>
   </g>
   <g id="text_7">
    <!-- $= 120 + 0.1\cdot 80 = 128$ -->
    <g style="fill: #161513" transform="translate(578.879391 106.905816) scale(0.12 -0.12)">
     <defs>
      <path id="Cmsy10-a2" d="M 538 1600 
Q 538 1691 584 1772 
Q 631 1853 714 1903 
Q 797 1953 891 1953 
Q 981 1953 1064 1903 
Q 1147 1853 1194 1772 
Q 1241 1691 1241 1600 
Q 1241 1456 1139 1351 
Q 1038 1247 891 1247 
Q 747 1247 642 1351 
Q 538 1456 538 1600 
z
" transform="scale(0.015625)"/>
      <path id="Cmr10-38" d="M 269 972 
Q 269 1356 522 1651 
Q 775 1947 1172 2144 
L 934 2297 
Q 716 2441 578 2680 
Q 441 2919 441 3181 
Q 441 3488 602 3734 
Q 763 3981 1030 4122 
Q 1297 4263 1600 4263 
Q 1884 4263 2148 4147 
Q 2413 4031 2583 3815 
Q 2753 3600 2753 3303 
Q 2753 3088 2651 2903 
Q 2550 2719 2373 2572 
Q 2197 2425 1997 2322 
L 2363 2088 
Q 2616 1922 2770 1653 
Q 2925 1384 2925 1088 
Q 2925 741 2739 456 
Q 2553 172 2247 15 
Q 1941 -141 1600 -141 
Q 1269 -141 961 -6 
Q 653 128 461 383 
Q 269 638 269 972 
z
M 616 972 
Q 616 719 755 509 
Q 894 300 1122 181 
Q 1350 63 1600 63 
Q 1972 63 2275 280 
Q 2578 497 2578 856 
Q 2578 978 2529 1098 
Q 2481 1219 2395 1317 
Q 2309 1416 2203 1478 
L 1344 2034 
Q 1144 1928 976 1765 
Q 809 1603 712 1400 
Q 616 1197 616 972 
z
M 1056 2925 
L 1831 2425 
Q 2100 2581 2272 2803 
Q 2444 3025 2444 3303 
Q 2444 3519 2323 3698 
Q 2203 3878 2009 3978 
Q 1816 4078 1594 4078 
Q 1400 4078 1203 4003 
Q 1006 3928 878 3779 
Q 750 3631 750 3431 
Q 750 3131 1056 2925 
z
" transform="scale(0.015625)"/>
     </defs>
     <use xlink:href="#Cmr10-3d" transform="translate(17.558594 0.390625)"/>
     <use xlink:href="#Cmr10-31" transform="translate(112.802734 0.390625)"/>
     <use xlink:href="#Cmr10-32" transform="translate(162.802734 0.390625)"/>
     <use xlink:href="#Cmr10-30" transform="translate(212.802734 0.390625)"/>
     <use xlink:href="#Cmr10-2b" transform="translate(280.361328 0.390625)"/>
     <use xlink:href="#Cmr10-30" transform="translate(375.605469 0.390625)"/>
     <use xlink:href="#Cmmi10-3a" transform="translate(425.605469 0.390625)"/>
     <use xlink:href="#Cmr10-31" transform="translate(453.291016 0.390625)"/>
     <use xlink:href="#Cmsy10-a2" transform="translate(520.849609 0.390625)"/>
     <use xlink:href="#Cmr10-38" transform="translate(566.09375 0.390625)"/>
     <use xlink:href="#Cmr10-30" transform="translate(616.09375 0.390625)"/>
     <use xlink:href="#Cmr10-3d" transform="translate(683.652344 0.390625)"/>
     <use xlink:href="#Cmr10-31" transform="translate(778.896484 0.390625)"/>
     <use xlink:href="#Cmr10-32" transform="translate(828.896484 0.390625)"/>
     <use xlink:href="#Cmr10-38" transform="translate(878.896484 0.390625)"/>
    </g>
   </g>
   <g id="text_8">
    <!-- $b_y = y_a + t_y\, h_a$ -->
    <g style="fill: #b85a3e" transform="translate(465.910934 146.348604) scale(0.135 -0.135)">
     <use xlink:href="#Cmmi10-62" transform="translate(0 0.609375)"/>
     <use xlink:href="#Cmmi10-79" transform="translate(42.919922 -16.396875) scale(0.7)"/>
     <use xlink:href="#Cmr10-3d" transform="translate(101.172266 0.609375)"/>
     <use xlink:href="#Cmmi10-79" transform="translate(196.416406 0.609375)"/>
     <use xlink:href="#Cmmi10-61" transform="translate(245.439844 -16.396875) scale(0.7)"/>
     <use xlink:href="#Cmr10-2b" transform="translate(306.324023 0.609375)"/>
     <use xlink:href="#Cmmi10-74" transform="translate(401.568164 0.609375)"/>
     <use xlink:href="#Cmmi10-79" transform="translate(437.652148 -16.396875) scale(0.7)"/>
     <use xlink:href="#Cmmi10-68" transform="translate(492.978353 0.609375)"/>
     <use xlink:href="#Cmmi10-61" transform="translate(550.59554 -16.396875) scale(0.7)"/>
    </g>
   </g>
   <g id="text_9">
    <!-- $= 240 - 0.2\cdot 100 = 220$ -->
    <g style="fill: #161513" transform="translate(578.879391 146.348604) scale(0.12 -0.12)">
     <defs>
      <path id="Cmr10-34" d="M 178 1056 
L 178 1281 
L 2156 4231 
Q 2178 4263 2222 4263 
L 2316 4263 
Q 2388 4263 2388 4191 
L 2388 1281 
L 3016 1281 
L 3016 1056 
L 2388 1056 
L 2388 428 
Q 2388 297 2575 261 
Q 2763 225 3009 225 
L 3009 0 
L 1247 0 
L 1247 225 
Q 1494 225 1681 261 
Q 1869 297 1869 428 
L 1869 1056 
L 178 1056 
z
M 391 1281 
L 1906 1281 
L 1906 3547 
L 391 1281 
z
" transform="scale(0.015625)"/>
     </defs>
     <use xlink:href="#Cmr10-3d" transform="translate(17.558594 0.390625)"/>
     <use xlink:href="#Cmr10-32" transform="translate(112.802734 0.390625)"/>
     <use xlink:href="#Cmr10-34" transform="translate(162.802734 0.390625)"/>
     <use xlink:href="#Cmr10-30" transform="translate(212.802734 0.390625)"/>
     <use xlink:href="#Cmsy10-a1" transform="translate(280.361328 0.390625)"/>
     <use xlink:href="#Cmr10-30" transform="translate(375.605469 0.390625)"/>
     <use xlink:href="#Cmmi10-3a" transform="translate(425.605469 0.390625)"/>
     <use xlink:href="#Cmr10-32" transform="translate(453.291016 0.390625)"/>
     <use xlink:href="#Cmsy10-a2" transform="translate(520.849609 0.390625)"/>
     <use xlink:href="#Cmr10-31" transform="translate(566.09375 0.390625)"/>
     <use xlink:href="#Cmr10-30" transform="translate(616.09375 0.390625)"/>
     <use xlink:href="#Cmr10-30" transform="translate(666.09375 0.390625)"/>
     <use xlink:href="#Cmr10-3d" transform="translate(733.652344 0.390625)"/>
     <use xlink:href="#Cmr10-32" transform="translate(828.896484 0.390625)"/>
     <use xlink:href="#Cmr10-32" transform="translate(878.896484 0.390625)"/>
     <use xlink:href="#Cmr10-30" transform="translate(928.896484 0.390625)"/>
    </g>
   </g>
   <g id="text_10">
    <!-- $b_w = w_a\, e^{t_w}$ -->
    <g style="fill: #37535f" transform="translate(465.910934 185.791392) scale(0.135 -0.135)">
     <defs>
      <path id="Cmmi10-65" d="M 1288 -72 
Q 981 -72 751 87 
Q 522 247 401 517 
Q 281 788 281 1088 
Q 281 1544 511 1945 
Q 741 2347 1134 2587 
Q 1528 2828 1978 2828 
Q 2253 2828 2458 2686 
Q 2663 2544 2663 2278 
Q 2663 1909 2369 1729 
Q 2075 1550 1706 1508 
Q 1338 1466 891 1466 
L 872 1466 
Q 769 1084 769 813 
Q 769 528 900 312 
Q 1031 97 1300 97 
Q 1681 97 2032 272 
Q 2384 447 2606 756 
Q 2625 775 2656 775 
Q 2688 775 2720 739 
Q 2753 703 2753 672 
Q 2753 647 2741 634 
Q 2506 306 2109 117 
Q 1713 -72 1288 -72 
z
M 909 1631 
Q 1281 1631 1597 1665 
Q 1913 1700 2169 1839 
Q 2425 1978 2425 2272 
Q 2425 2391 2359 2480 
Q 2294 2569 2189 2616 
Q 2084 2663 1972 2663 
Q 1700 2663 1483 2516 
Q 1266 2369 1125 2133 
Q 984 1897 909 1631 
z
" transform="scale(0.015625)"/>
     </defs>
     <use xlink:href="#Cmmi10-62" transform="translate(0 0.920312)"/>
     <use xlink:href="#Cmmi10-77" transform="translate(42.919922 -16.085938) scale(0.7)"/>
     <use xlink:href="#Cmr10-3d" transform="translate(116.894922 0.920312)"/>
     <use xlink:href="#Cmmi10-77" transform="translate(212.139062 0.920312)"/>
     <use xlink:href="#Cmmi10-61" transform="translate(283.623438 -16.085938) scale(0.7)"/>
     <use xlink:href="#Cmmi10-65" transform="translate(341.581478 0.920312)"/>
     <use xlink:href="#Cmmi10-74" transform="translate(394.369134 39.184375) scale(0.7)"/>
     <use xlink:href="#Cmmi10-77" transform="translate(419.627923 27.28) scale(0.49)"/>
    </g>
   </g>
   <g id="text_11">
    <!-- $= 80\cdot e^{0.3}\approx 108$ -->
    <g style="fill: #161513" transform="translate(578.879391 185.791392) scale(0.12 -0.12)">
     <defs>
      <path id="Cmsy10-bc" d="M 447 359 
Q 378 359 359 519 
L 359 556 
Q 359 847 501 1087 
Q 644 1328 891 1464 
Q 1138 1600 1422 1600 
Q 1766 1600 2130 1379 
Q 2494 1159 2853 937 
Q 3213 716 3553 716 
Q 3881 716 4157 919 
Q 4434 1122 4434 1441 
Q 4453 1600 4525 1600 
Q 4597 1600 4616 1441 
L 4616 1403 
Q 4616 1113 4472 872 
Q 4328 631 4083 495 
Q 3838 359 3553 359 
Q 3284 359 3048 470 
Q 2813 581 2495 795 
Q 2178 1009 1937 1125 
Q 1697 1241 1422 1241 
Q 1219 1241 1009 1150 
Q 800 1059 669 895 
Q 538 731 538 519 
Q 519 359 447 359 
z
M 447 1850 
Q 378 1850 359 2009 
L 359 2047 
Q 359 2338 501 2578 
Q 644 2819 891 2955 
Q 1138 3091 1422 3091 
Q 1766 3091 2130 2870 
Q 2494 2650 2853 2429 
Q 3213 2209 3553 2209 
Q 3881 2209 4157 2412 
Q 4434 2616 4434 2931 
Q 4453 3091 4525 3091 
Q 4597 3091 4616 2931 
L 4616 2894 
Q 4616 2603 4472 2362 
Q 4328 2122 4083 1986 
Q 3838 1850 3553 1850 
Q 3284 1850 3048 1961 
Q 2813 2072 2495 2286 
Q 2178 2500 1937 2615 
Q 1697 2731 1422 2731 
Q 1219 2731 1009 2640 
Q 800 2550 669 2386 
Q 538 2222 538 2009 
Q 519 1850 447 1850 
z
" transform="scale(0.015625)"/>
     </defs>
     <use xlink:href="#Cmr10-3d" transform="translate(17.558594 0.109375)"/>
     <use xlink:href="#Cmr10-38" transform="translate(112.802734 0.109375)"/>
     <use xlink:href="#Cmr10-30" transform="translate(162.802734 0.109375)"/>
     <use xlink:href="#Cmsy10-a2" transform="translate(230.361328 0.109375)"/>
     <use xlink:href="#Cmmi10-65" transform="translate(275.605469 0.109375)"/>
     <use xlink:href="#Cmr10-30" transform="translate(328.393125 38.373438) scale(0.7)"/>
     <use xlink:href="#Cmmi10-3a" transform="translate(363.393125 38.373438) scale(0.7)"/>
     <use xlink:href="#Cmr10-33" transform="translate(382.773008 38.373438) scale(0.7)"/>
     <use xlink:href="#Cmsy10-bc" transform="translate(441.708945 0.109375)"/>
     <use xlink:href="#Cmr10-31" transform="translate(536.953086 0.109375)"/>
     <use xlink:href="#Cmr10-30" transform="translate(586.953086 0.109375)"/>
     <use xlink:href="#Cmr10-38" transform="translate(636.953086 0.109375)"/>
    </g>
   </g>
   <g id="text_12">
    <!-- $b_h = h_a\, e^{t_h}$ -->
    <g style="fill: #37535f" transform="translate(465.910934 225.23418) scale(0.135 -0.135)">
     <use xlink:href="#Cmmi10-62" transform="translate(0 0.920312)"/>
     <use xlink:href="#Cmmi10-68" transform="translate(42.919922 -16.085938) scale(0.7)"/>
     <use xlink:href="#Cmr10-3d" transform="translate(107.187891 0.920312)"/>
     <use xlink:href="#Cmmi10-68" transform="translate(202.432031 0.920312)"/>
     <use xlink:href="#Cmmi10-61" transform="translate(260.049219 -16.085938) scale(0.7)"/>
     <use xlink:href="#Cmmi10-65" transform="translate(318.007259 0.920312)"/>
     <use xlink:href="#Cmmi10-74" transform="translate(370.794915 39.184375) scale(0.7)"/>
     <use xlink:href="#Cmmi10-68" transform="translate(396.053704 27.28) scale(0.49)"/>
    </g>
   </g>
   <g id="text_13">
    <!-- $= 100\cdot e^{-0.1}\approx 90$ -->
    <g style="fill: #161513" transform="translate(578.879391 225.23418) scale(0.12 -0.12)">
     <defs>
      <path id="Cmr10-39" d="M 722 269 
Q 897 63 1331 63 
Q 1575 63 1786 228 
Q 1997 394 2113 634 
Q 2247 906 2284 1214 
Q 2322 1522 2322 1978 
Q 2213 1719 2008 1553 
Q 1803 1388 1538 1388 
Q 1166 1388 873 1589 
Q 581 1791 425 2120 
Q 269 2450 269 2822 
Q 269 3206 444 3539 
Q 619 3872 928 4067 
Q 1238 4263 1631 4263 
Q 2019 4263 2280 4052 
Q 2541 3841 2678 3508 
Q 2816 3175 2870 2803 
Q 2925 2431 2925 2069 
Q 2925 1575 2744 1061 
Q 2563 547 2202 203 
Q 1841 -141 1331 -141 
Q 953 -141 690 37 
Q 428 216 428 575 
Q 428 706 517 795 
Q 606 884 738 884 
Q 866 884 955 795 
Q 1044 706 1044 575 
Q 1044 450 953 359 
Q 863 269 738 269 
L 722 269 
z
M 1563 1556 
Q 1825 1556 1992 1732 
Q 2159 1909 2234 2171 
Q 2309 2434 2309 2694 
L 2309 2816 
L 2309 2841 
Q 2309 3322 2168 3700 
Q 2028 4078 1631 4078 
Q 1378 4078 1220 3967 
Q 1063 3856 988 3672 
Q 913 3488 892 3278 
Q 872 3069 872 2822 
Q 872 2459 906 2203 
Q 941 1947 1094 1751 
Q 1247 1556 1563 1556 
z
" transform="scale(0.015625)"/>
     </defs>
     <use xlink:href="#Cmr10-3d" transform="translate(17.558594 0.109375)"/>
     <use xlink:href="#Cmr10-31" transform="translate(112.802734 0.109375)"/>
     <use xlink:href="#Cmr10-30" transform="translate(162.802734 0.109375)"/>
     <use xlink:href="#Cmr10-30" transform="translate(212.802734 0.109375)"/>
     <use xlink:href="#Cmsy10-a2" transform="translate(280.361328 0.109375)"/>
     <use xlink:href="#Cmmi10-65" transform="translate(325.605469 0.109375)"/>
     <use xlink:href="#Cmsy10-a1" transform="translate(378.393125 38.373438) scale(0.7)"/>
     <use xlink:href="#Cmr10-30" transform="translate(432.773008 38.373438) scale(0.7)"/>
     <use xlink:href="#Cmmi10-3a" transform="translate(467.773008 38.373438) scale(0.7)"/>
     <use xlink:href="#Cmr10-31" transform="translate(487.152891 38.373438) scale(0.7)"/>
     <use xlink:href="#Cmsy10-bc" transform="translate(546.088828 0.109375)"/>
     <use xlink:href="#Cmr10-39" transform="translate(641.332969 0.109375)"/>
     <use xlink:href="#Cmr10-30" transform="translate(691.332969 0.109375)"/>
    </g>
   </g>
   <g id="text_14">
    <!-- centre: shift, scaled by anchor size -->
    <g style="fill: #5f5c54" transform="translate(465.910934 270.68784) scale(0.105 -0.105)">
     <defs>
      <path id="Georgia-Italic-63" d="M 1391 -88 
Q 844 -88 526 231 
Q 209 550 209 1138 
Q 209 1528 329 1886 
Q 450 2244 666 2522 
Q 881 2800 1211 2976 
Q 1541 3153 1944 3153 
Q 2391 3153 2623 2964 
Q 2856 2775 2856 2488 
Q 2856 2272 2754 2109 
Q 2653 1947 2450 1947 
Q 2281 1947 2197 2031 
Q 2113 2116 2113 2219 
Q 2113 2319 2181 2492 
Q 2250 2666 2291 2772 
Q 2256 2856 2137 2895 
Q 2019 2934 1891 2934 
Q 1466 2934 1158 2439 
Q 850 1944 850 1225 
Q 850 781 1048 520 
Q 1247 259 1584 259 
Q 1888 259 2123 421 
Q 2359 584 2575 881 
L 2753 750 
Q 2538 409 2167 160 
Q 1797 -88 1391 -88 
z
" transform="scale(0.015625)"/>
      <path id="Georgia-Italic-74" d="M 947 -66 
Q 650 -66 512 54 
Q 375 175 375 400 
Q 375 472 384 536 
Q 394 600 409 681 
L 894 2769 
L 338 2769 
L 403 3053 
L 972 3053 
L 1191 3969 
L 1753 3969 
L 1541 3053 
L 2413 3053 
L 2347 2769 
L 1481 2769 
L 1081 1047 
Q 1053 928 1034 817 
Q 1016 706 1016 628 
Q 1016 456 1102 376 
Q 1188 297 1413 297 
Q 1494 297 1641 317 
Q 1788 338 1869 369 
L 1816 141 
Q 1597 56 1403 -5 
Q 1209 -66 947 -66 
z
" transform="scale(0.015625)"/>
      <path id="Georgia-Italic-72" d="M 2981 2644 
Q 2981 2556 2956 2451 
Q 2931 2347 2884 2278 
Q 2828 2194 2761 2148 
Q 2694 2103 2569 2103 
Q 2400 2103 2315 2187 
Q 2231 2272 2231 2375 
Q 2231 2472 2278 2592 
Q 2325 2713 2375 2831 
Q 2338 2831 2252 2811 
Q 2166 2791 2044 2731 
Q 1922 2672 1767 2553 
Q 1613 2434 1438 2238 
L 934 0 
L 353 0 
L 809 2025 
Q 825 2100 854 2250 
Q 884 2400 884 2472 
Q 884 2647 825 2706 
Q 766 2766 588 2766 
Q 519 2766 412 2742 
Q 306 2719 247 2703 
L 294 2903 
Q 538 3013 725 3066 
Q 913 3119 1047 3119 
Q 1297 3119 1403 2983 
Q 1509 2847 1509 2575 
L 1528 2575 
Q 1900 2897 2092 3025 
Q 2284 3153 2494 3153 
Q 2594 3153 2687 3128 
Q 2781 3103 2847 3044 
Q 2916 2978 2948 2892 
Q 2981 2806 2981 2644 
z
" transform="scale(0.015625)"/>
      <path id="Georgia-Italic-3a" d="M 1913 2666 
Q 1913 2491 1786 2366 
Q 1659 2241 1484 2241 
Q 1309 2241 1182 2366 
Q 1056 2491 1056 2666 
Q 1056 2841 1181 2967 
Q 1306 3094 1484 3094 
Q 1663 3094 1788 2967 
Q 1913 2841 1913 2666 
z
M 1397 359 
Q 1397 184 1270 60 
Q 1144 -63 969 -63 
Q 794 -63 667 60 
Q 541 184 541 359 
Q 541 534 667 661 
Q 794 788 969 788 
Q 1144 788 1270 661 
Q 1397 534 1397 359 
z
" transform="scale(0.015625)"/>
      <path id="Georgia-Italic-68" d="M 3419 363 
L 3372 163 
Q 3091 50 2934 -1 
Q 2778 -53 2619 -53 
Q 2369 -53 2244 76 
Q 2119 206 2119 397 
Q 2119 466 2131 548 
Q 2144 631 2172 744 
L 2478 1909 
Q 2513 2044 2533 2153 
Q 2553 2263 2553 2328 
Q 2553 2538 2453 2659 
Q 2353 2781 2156 2781 
Q 1956 2781 1723 2653 
Q 1491 2525 1281 2294 
L 753 0 
L 172 0 
L 1100 4022 
Q 1116 4094 1127 4144 
Q 1138 4194 1138 4250 
Q 1138 4363 1100 4423 
Q 1063 4484 994 4516 
Q 934 4544 831 4553 
Q 728 4563 625 4575 
L 669 4766 
L 1828 4838 
L 1859 4791 
L 1359 2628 
L 1372 2628 
Q 1694 2888 1947 3020 
Q 2200 3153 2522 3153 
Q 2822 3153 2990 2979 
Q 3159 2806 3159 2525 
Q 3159 2469 3142 2325 
Q 3125 2181 3088 2041 
L 2825 1038 
Q 2800 938 2772 808 
Q 2744 678 2744 606 
Q 2744 428 2822 364 
Q 2900 300 3078 300 
Q 3138 300 3248 320 
Q 3359 341 3419 363 
z
" transform="scale(0.015625)"/>
      <path id="Georgia-Italic-69" d="M 1722 341 
L 1675 141 
Q 1388 25 1216 -20 
Q 1044 -66 922 -66 
Q 672 -66 547 64 
Q 422 194 422 384 
Q 422 456 434 534 
Q 447 613 475 731 
L 806 2059 
Q 831 2169 854 2294 
Q 878 2419 878 2506 
Q 878 2681 820 2739 
Q 763 2797 584 2797 
Q 516 2797 402 2775 
Q 288 2753 228 2738 
L 275 2938 
Q 519 3047 712 3100 
Q 906 3153 1019 3153 
Q 1275 3153 1390 3031 
Q 1506 2909 1506 2703 
Q 1506 2647 1493 2550 
Q 1481 2453 1456 2356 
L 1122 1028 
Q 1091 906 1067 789 
Q 1044 672 1044 597 
Q 1044 419 1123 353 
Q 1203 288 1381 288 
Q 1441 288 1552 303 
Q 1663 319 1722 341 
z
M 1944 4334 
Q 1944 4156 1828 4023 
Q 1713 3891 1541 3891 
Q 1381 3891 1265 4017 
Q 1150 4144 1150 4306 
Q 1150 4478 1265 4606 
Q 1381 4734 1541 4734 
Q 1719 4734 1831 4614 
Q 1944 4494 1944 4334 
z
" transform="scale(0.015625)"/>
      <path id="Georgia-Italic-66" d="M 1547 2769 
L 997 188 
Q 850 -506 378 -947 
Q -94 -1388 -594 -1388 
Q -869 -1388 -998 -1283 
Q -1128 -1178 -1128 -1019 
Q -1128 -884 -1047 -781 
Q -966 -678 -813 -678 
Q -716 -678 -642 -722 
Q -569 -766 -513 -831 
Q -469 -884 -414 -975 
Q -359 -1066 -319 -1131 
Q -78 -1113 92 -806 
Q 263 -500 388 69 
L 963 2769 
L 353 2769 
L 419 3053 
L 1022 3053 
L 1066 3266 
Q 1141 3628 1303 3918 
Q 1466 4209 1672 4413 
Q 1875 4613 2133 4727 
Q 2391 4841 2628 4841 
Q 2903 4841 3033 4736 
Q 3163 4631 3163 4472 
Q 3163 4338 3086 4234 
Q 3009 4131 2847 4131 
Q 2750 4131 2678 4173 
Q 2606 4216 2550 4284 
Q 2488 4363 2450 4431 
Q 2413 4500 2356 4584 
Q 2141 4575 1975 4300 
Q 1809 4025 1675 3384 
L 1606 3053 
L 2391 3053 
L 2325 2769 
L 1547 2769 
z
" transform="scale(0.015625)"/>
      <path id="Georgia-Italic-2c" d="M 1291 306 
Q 1291 41 1169 -189 
Q 1047 -419 856 -603 
Q 675 -781 481 -907 
Q 288 -1034 138 -1106 
L 38 -897 
Q 181 -819 328 -720 
Q 475 -622 575 -522 
Q 700 -400 786 -281 
Q 872 -163 922 6 
L 775 6 
Q 584 6 489 101 
Q 394 197 394 350 
Q 394 513 519 650 
Q 644 788 856 788 
Q 1084 788 1187 655 
Q 1291 522 1291 306 
z
" transform="scale(0.015625)"/>
      <path id="Georgia-Italic-62" d="M 3325 1959 
Q 3325 1544 3175 1164 
Q 3025 784 2778 509 
Q 2525 228 2206 67 
Q 1888 -94 1531 -94 
Q 1263 -94 1058 -48 
Q 853 -3 709 75 
Q 563 156 466 257 
Q 369 359 291 484 
L 1097 4022 
Q 1113 4094 1123 4145 
Q 1134 4197 1134 4250 
Q 1134 4363 1096 4423 
Q 1059 4484 991 4516 
Q 925 4544 825 4553 
Q 725 4563 622 4575 
L 666 4766 
L 1825 4838 
L 1856 4791 
L 1381 2713 
L 1394 2713 
Q 1675 2963 1889 3058 
Q 2103 3153 2306 3153 
Q 2781 3153 3053 2829 
Q 3325 2506 3325 1959 
z
M 2681 1944 
Q 2681 2109 2651 2276 
Q 2622 2444 2553 2556 
Q 2481 2675 2356 2744 
Q 2231 2813 2047 2813 
Q 1938 2813 1841 2775 
Q 1744 2738 1641 2675 
Q 1550 2619 1464 2539 
Q 1378 2459 1306 2397 
L 891 544 
Q 900 481 947 406 
Q 994 331 1066 275 
Q 1153 203 1262 165 
Q 1372 128 1503 128 
Q 1750 128 1967 273 
Q 2184 419 2341 666 
Q 2513 934 2597 1265 
Q 2681 1597 2681 1944 
z
" transform="scale(0.015625)"/>
      <path id="Georgia-Italic-79" d="M 2241 453 
L 2222 453 
Q 1934 213 1675 75 
Q 1416 -63 1084 -63 
Q 784 -63 609 110 
Q 434 284 434 566 
Q 434 641 446 744 
Q 459 847 506 1050 
L 750 2025 
Q 784 2166 803 2270 
Q 822 2375 822 2472 
Q 822 2647 764 2705 
Q 706 2763 528 2763 
Q 459 2763 353 2738 
Q 247 2713 188 2697 
L 234 2897 
Q 478 3006 664 3062 
Q 850 3119 963 3119 
Q 1213 3119 1333 3006 
Q 1453 2894 1453 2669 
Q 1453 2613 1440 2516 
Q 1428 2419 1403 2322 
L 1119 1181 
Q 1088 1050 1066 936 
Q 1044 822 1044 763 
Q 1044 553 1145 431 
Q 1247 309 1444 309 
Q 1672 309 1889 421 
Q 2106 534 2297 731 
L 2816 3069 
L 3356 3106 
L 3394 3059 
L 2856 613 
Q 2738 75 2553 -306 
Q 2369 -688 2122 -922 
Q 1863 -1169 1563 -1278 
Q 1263 -1388 878 -1388 
Q 613 -1388 456 -1350 
Q 300 -1313 209 -1247 
Q 119 -1184 87 -1106 
Q 56 -1028 56 -950 
Q 56 -816 137 -712 
Q 219 -609 372 -609 
Q 488 -609 569 -675 
Q 650 -741 700 -819 
Q 756 -903 803 -1009 
Q 850 -1116 878 -1178 
L 953 -1178 
Q 1131 -1178 1329 -1090 
Q 1528 -1003 1694 -819 
Q 1872 -619 2014 -303 
Q 2156 13 2241 453 
z
" transform="scale(0.015625)"/>
      <path id="Georgia-Italic-6f" d="M 3228 1925 
Q 3228 1556 3103 1187 
Q 2978 819 2741 541 
Q 2500 253 2161 79 
Q 1822 -94 1375 -94 
Q 856 -94 532 240 
Q 209 575 209 1141 
Q 209 1556 346 1915 
Q 484 2275 716 2547 
Q 950 2819 1295 2986 
Q 1641 3153 2044 3153 
Q 2600 3153 2914 2814 
Q 3228 2475 3228 1925 
z
M 2591 2044 
Q 2591 2488 2433 2709 
Q 2275 2931 1978 2931 
Q 1719 2931 1489 2772 
Q 1259 2613 1094 2253 
Q 966 1981 906 1648 
Q 847 1316 847 1034 
Q 847 588 1001 358 
Q 1156 128 1469 128 
Q 1747 128 1962 303 
Q 2178 478 2313 747 
Q 2447 1009 2519 1348 
Q 2591 1688 2591 2044 
z
" transform="scale(0.015625)"/>
      <path id="Georgia-Italic-7a" d="M 2919 3059 
L 2878 2875 
L 647 247 
Q 759 244 890 242 
Q 1022 241 1178 241 
Q 1300 241 1434 245 
Q 1569 250 1775 259 
Q 1900 266 1979 347 
Q 2059 428 2113 528 
Q 2159 609 2246 782 
Q 2334 956 2391 1088 
L 2578 1088 
L 2366 0 
L -84 0 
L -34 219 
L 2163 2813 
L 1753 2813 
Q 1481 2813 1325 2803 
Q 1169 2794 1031 2741 
Q 928 2703 818 2525 
Q 709 2347 613 2113 
L 422 2113 
L 606 3059 
L 2919 3059 
z
" transform="scale(0.015625)"/>
     </defs>
     <use xlink:href="#Georgia-Italic-63"/>
     <use xlink:href="#Georgia-Italic-65" transform="translate(45.361328 0)"/>
     <use xlink:href="#Georgia-Italic-6e" transform="translate(92.529297 0)"/>
     <use xlink:href="#Georgia-Italic-74" transform="translate(151.513672 0)"/>
     <use xlink:href="#Georgia-Italic-72" transform="translate(186.230469 0)"/>
     <use xlink:href="#Georgia-Italic-65" transform="translate(232.373047 0)"/>
     <use xlink:href="#Georgia-Italic-3a" transform="translate(279.541016 0)"/>
     <use xlink:href="#Georgia-Italic-20" transform="translate(317.919922 0)"/>
     <use xlink:href="#Georgia-Italic-73" transform="translate(342.041016 0)"/>
     <use xlink:href="#Georgia-Italic-68" transform="translate(385.15625 0)"/>
     <use xlink:href="#Georgia-Italic-69" transform="translate(441.40625 0)"/>
     <use xlink:href="#Georgia-Italic-66" transform="translate(471.142578 0)"/>
     <use xlink:href="#Georgia-Italic-74" transform="translate(504.003906 0)"/>
     <use xlink:href="#Georgia-Italic-2c" transform="translate(538.720703 0)"/>
     <use xlink:href="#Georgia-Italic-20" transform="translate(565.673828 0)"/>
     <use xlink:href="#Georgia-Italic-73" transform="translate(589.794922 0)"/>
     <use xlink:href="#Georgia-Italic-63" transform="translate(632.910156 0)"/>
     <use xlink:href="#Georgia-Italic-61" transform="translate(678.271484 0)"/>
     <use xlink:href="#Georgia-Italic-6c" transform="translate(735.546875 0)"/>
     <use xlink:href="#Georgia-Italic-65" transform="translate(764.0625 0)"/>
     <use xlink:href="#Georgia-Italic-64" transform="translate(811.230469 0)"/>
     <use xlink:href="#Georgia-Italic-20" transform="translate(868.75 0)"/>
     <use xlink:href="#Georgia-Italic-62" transform="translate(892.871094 0)"/>
     <use xlink:href="#Georgia-Italic-79" transform="translate(948.242188 0)"/>
     <use xlink:href="#Georgia-Italic-20" transform="translate(1004.199219 0)"/>
     <use xlink:href="#Georgia-Italic-61" transform="translate(1028.320312 0)"/>
     <use xlink:href="#Georgia-Italic-6e" transform="translate(1085.595703 0)"/>
     <use xlink:href="#Georgia-Italic-63" transform="translate(1144.580078 0)"/>
     <use xlink:href="#Georgia-Italic-68" transform="translate(1189.941406 0)"/>
     <use xlink:href="#Georgia-Italic-6f" transform="translate(1246.191406 0)"/>
     <use xlink:href="#Georgia-Italic-72" transform="translate(1299.902344 0)"/>
     <use xlink:href="#Georgia-Italic-20" transform="translate(1346.044922 0)"/>
     <use xlink:href="#Georgia-Italic-73" transform="translate(1370.166016 0)"/>
     <use xlink:href="#Georgia-Italic-69" transform="translate(1413.28125 0)"/>
     <use xlink:href="#Georgia-Italic-7a" transform="translate(1443.017578 0)"/>
     <use xlink:href="#Georgia-Italic-65" transform="translate(1487.402344 0)"/>
    </g>
    <!-- size: log-space, so width stays positive -->
    <g style="fill: #5f5c54" transform="translate(465.910934 282.48984) scale(0.105 -0.105)">
     <defs>
      <path id="Georgia-Italic-2d" d="M 2222 1938 
L 2109 1463 
L 247 1463 
L 359 1938 
L 2222 1938 
z
" transform="scale(0.015625)"/>
      <path id="Georgia-Italic-70" d="M 3481 1959 
Q 3481 1541 3334 1166 
Q 3188 791 2944 516 
Q 2672 213 2355 66 
Q 2038 -81 1703 -81 
Q 1434 -81 1262 -15 
Q 1091 50 956 147 
L 775 -672 
Q 756 -750 745 -819 
Q 734 -888 734 -928 
Q 734 -1013 795 -1063 
Q 856 -1113 934 -1134 
Q 1013 -1159 1109 -1171 
Q 1206 -1184 1284 -1191 
L 1241 -1388 
L -481 -1388 
L -438 -1191 
Q -338 -1184 -250 -1175 
Q -163 -1166 -84 -1144 
Q 13 -1116 70 -1039 
Q 128 -963 153 -850 
L 806 2025 
Q 831 2144 853 2264 
Q 875 2384 875 2472 
Q 875 2647 820 2706 
Q 766 2766 584 2766 
Q 516 2766 409 2739 
Q 303 2713 244 2697 
L 291 2897 
Q 528 3003 718 3061 
Q 909 3119 1044 3119 
Q 1263 3119 1375 3008 
Q 1488 2897 1516 2700 
L 1541 2700 
Q 1753 2897 1995 3025 
Q 2238 3153 2478 3153 
Q 2953 3153 3217 2829 
Q 3481 2506 3481 1959 
z
M 2506 669 
Q 2666 925 2752 1251 
Q 2838 1578 2838 1944 
Q 2838 2109 2808 2276 
Q 2778 2444 2713 2553 
Q 2644 2675 2525 2742 
Q 2406 2809 2213 2809 
Q 2069 2809 1895 2721 
Q 1722 2634 1472 2394 
L 1072 622 
Q 1094 444 1264 289 
Q 1434 134 1675 134 
Q 1922 134 2137 278 
Q 2353 422 2506 669 
z
" transform="scale(0.015625)"/>
      <path id="Georgia-Italic-77" d="M 5066 2575 
Q 5066 2084 4925 1603 
Q 4784 1122 4541 756 
Q 4269 350 3925 128 
Q 3581 -94 3178 -94 
Q 2884 -94 2636 68 
Q 2388 231 2303 516 
Q 2191 406 2095 312 
Q 2000 219 1847 119 
Q 1694 19 1567 -34 
Q 1441 -88 1244 -88 
Q 1006 -88 851 -14 
Q 697 59 603 178 
Q 516 291 478 433 
Q 441 575 441 731 
Q 441 791 455 881 
Q 469 972 484 1038 
L 750 2025 
Q 788 2166 805 2281 
Q 822 2397 822 2472 
Q 822 2647 764 2705 
Q 706 2763 528 2763 
Q 459 2763 353 2738 
Q 247 2713 188 2697 
L 234 2897 
Q 478 3006 664 3062 
Q 850 3119 963 3119 
Q 1213 3119 1330 3001 
Q 1447 2884 1447 2669 
Q 1447 2613 1434 2516 
Q 1422 2419 1397 2322 
L 1106 1169 
Q 1078 1053 1059 931 
Q 1041 809 1041 750 
Q 1041 516 1134 395 
Q 1228 275 1450 275 
Q 1647 275 1862 383 
Q 2078 491 2256 697 
L 2809 3069 
L 3353 3106 
L 3391 3059 
L 2950 1156 
Q 2928 1063 2904 927 
Q 2881 791 2881 756 
Q 2881 584 2936 484 
Q 2991 384 3075 338 
Q 3156 291 3243 280 
Q 3331 269 3413 269 
Q 3625 269 3848 403 
Q 4072 538 4238 753 
Q 4422 994 4528 1286 
Q 4634 1578 4634 1916 
Q 4634 2103 4582 2204 
Q 4531 2306 4469 2381 
Q 4406 2459 4354 2545 
Q 4303 2631 4303 2788 
Q 4303 2966 4422 3059 
Q 4541 3153 4672 3153 
Q 4856 3153 4961 3004 
Q 5066 2856 5066 2575 
z
" transform="scale(0.015625)"/>
      <path id="Georgia-Italic-76" d="M 3247 2575 
Q 3247 2100 3103 1611 
Q 2959 1122 2709 756 
Q 2456 378 2106 142 
Q 1756 -94 1338 -94 
Q 928 -94 684 132 
Q 441 359 441 741 
Q 441 813 458 903 
Q 475 994 481 1025 
L 753 2025 
Q 784 2147 807 2264 
Q 831 2381 831 2469 
Q 831 2644 770 2703 
Q 709 2763 531 2763 
Q 466 2763 353 2734 
Q 241 2706 184 2691 
L 231 2891 
Q 475 3000 664 3059 
Q 853 3119 966 3119 
Q 1216 3119 1336 3003 
Q 1456 2888 1456 2669 
Q 1456 2606 1445 2517 
Q 1434 2428 1406 2322 
L 1106 1156 
Q 1075 1038 1059 928 
Q 1044 819 1044 788 
Q 1044 625 1095 523 
Q 1147 422 1225 366 
Q 1300 313 1389 291 
Q 1478 269 1572 269 
Q 1784 269 2011 403 
Q 2238 538 2406 753 
Q 2591 988 2703 1277 
Q 2816 1566 2816 1916 
Q 2816 2103 2764 2204 
Q 2713 2306 2650 2381 
Q 2588 2459 2536 2545 
Q 2484 2631 2484 2788 
Q 2484 2966 2603 3059 
Q 2722 3153 2853 3153 
Q 3038 3153 3142 3004 
Q 3247 2856 3247 2575 
z
" transform="scale(0.015625)"/>
     </defs>
     <use xlink:href="#Georgia-Italic-73"/>
     <use xlink:href="#Georgia-Italic-69" transform="translate(43.115234 0)"/>
     <use xlink:href="#Georgia-Italic-7a" transform="translate(72.851562 0)"/>
     <use xlink:href="#Georgia-Italic-65" transform="translate(117.236328 0)"/>
     <use xlink:href="#Georgia-Italic-3a" transform="translate(164.404297 0)"/>
     <use xlink:href="#Georgia-Italic-20" transform="translate(202.783203 0)"/>
     <use xlink:href="#Georgia-Italic-6c" transform="translate(226.904297 0)"/>
     <use xlink:href="#Georgia-Italic-6f" transform="translate(255.419922 0)"/>
     <use xlink:href="#Georgia-Italic-67" transform="translate(309.130859 0)"/>
     <use xlink:href="#Georgia-Italic-2d" transform="translate(366.40625 0)"/>
     <use xlink:href="#Georgia-Italic-73" transform="translate(403.808594 0)"/>
     <use xlink:href="#Georgia-Italic-70" transform="translate(446.923828 0)"/>
     <use xlink:href="#Georgia-Italic-61" transform="translate(504.736328 0)"/>
     <use xlink:href="#Georgia-Italic-63" transform="translate(562.011719 0)"/>
     <use xlink:href="#Georgia-Italic-65" transform="translate(607.373047 0)"/>
     <use xlink:href="#Georgia-Italic-2c" transform="translate(654.541016 0)"/>
     <use xlink:href="#Georgia-Italic-20" transform="translate(681.494141 0)"/>
     <use xlink:href="#Georgia-Italic-73" transform="translate(705.615234 0)"/>
     <use xlink:href="#Georgia-Italic-6f" transform="translate(748.730469 0)"/>
     <use xlink:href="#Georgia-Italic-20" transform="translate(802.441406 0)"/>
     <use xlink:href="#Georgia-Italic-77" transform="translate(826.5625 0)"/>
     <use xlink:href="#Georgia-Italic-69" transform="translate(908.789062 0)"/>
     <use xlink:href="#Georgia-Italic-64" transform="translate(938.525391 0)"/>
     <use xlink:href="#Georgia-Italic-74" transform="translate(996.044922 0)"/>
     <use xlink:href="#Georgia-Italic-68" transform="translate(1030.761719 0)"/>
     <use xlink:href="#Georgia-Italic-20" transform="translate(1087.011719 0)"/>
     <use xlink:href="#Georgia-Italic-73" transform="translate(1111.132812 0)"/>
     <use xlink:href="#Georgia-Italic-74" transform="translate(1154.248047 0)"/>
     <use xlink:href="#Georgia-Italic-61" transform="translate(1188.964844 0)"/>
     <use xlink:href="#Georgia-Italic-79" transform="translate(1246.240234 0)"/>
     <use xlink:href="#Georgia-Italic-73" transform="translate(1302.197266 0)"/>
     <use xlink:href="#Georgia-Italic-20" transform="translate(1345.3125 0)"/>
     <use xlink:href="#Georgia-Italic-70" transform="translate(1369.433594 0)"/>
     <use xlink:href="#Georgia-Italic-6f" transform="translate(1427.246094 0)"/>
     <use xlink:href="#Georgia-Italic-73" transform="translate(1480.957031 0)"/>
     <use xlink:href="#Georgia-Italic-69" transform="translate(1524.072266 0)"/>
     <use xlink:href="#Georgia-Italic-74" transform="translate(1553.808594 0)"/>
     <use xlink:href="#Georgia-Italic-69" transform="translate(1588.525391 0)"/>
     <use xlink:href="#Georgia-Italic-76" transform="translate(1618.261719 0)"/>
     <use xlink:href="#Georgia-Italic-65" transform="translate(1672.070312 0)"/>
    </g>
   </g>
  </g>
  <g id="text_15">
   <!-- Decode: the box is the anchor, gently corrected -->
   <g style="fill: #161513" transform="translate(7.2 18.539062) scale(0.15 -0.15)">
    <defs>
     <path id="Georgia-44" d="M 4553 2191 
Q 4553 1625 4340 1209 
Q 4128 794 3788 528 
Q 3444 263 3016 131 
Q 2588 0 2131 0 
L 294 0 
L 294 222 
Q 384 222 529 239 
Q 675 256 722 278 
Q 816 319 858 398 
Q 900 478 900 591 
L 900 3791 
Q 900 3897 864 3981 
Q 828 4066 722 4116 
Q 625 4163 512 4184 
Q 400 4206 319 4213 
L 319 4434 
L 2256 4434 
Q 2656 4434 3043 4311 
Q 3431 4188 3719 3978 
Q 4109 3700 4331 3250 
Q 4553 2800 4553 2191 
z
M 3788 2194 
Q 3788 2641 3669 3002 
Q 3550 3363 3322 3631 
Q 3106 3888 2792 4034 
Q 2478 4181 2094 4181 
Q 1966 4181 1805 4176 
Q 1644 4172 1566 4169 
L 1566 759 
Q 1566 475 1731 365 
Q 1897 256 2241 256 
Q 2638 256 2934 397 
Q 3231 538 3416 788 
Q 3609 1050 3698 1395 
Q 3788 1741 3788 2194 
z
" transform="scale(0.015625)"/>
     <path id="Georgia-3a" d="M 1428 2666 
Q 1428 2491 1301 2366 
Q 1175 2241 1000 2241 
Q 825 2241 698 2366 
Q 572 2491 572 2666 
Q 572 2841 697 2967 
Q 822 3094 1000 3094 
Q 1178 3094 1303 2967 
Q 1428 2841 1428 2666 
z
M 1428 359 
Q 1428 184 1301 60 
Q 1175 -63 1000 -63 
Q 825 -63 698 60 
Q 572 184 572 359 
Q 572 534 698 661 
Q 825 788 1000 788 
Q 1175 788 1301 661 
Q 1428 534 1428 359 
z
" transform="scale(0.015625)"/>
     <path id="Georgia-67" d="M 2866 319 
Q 2991 200 3062 50 
Q 3134 -100 3134 -322 
Q 3134 -544 3037 -739 
Q 2941 -934 2744 -1078 
Q 2534 -1225 2243 -1306 
Q 1953 -1388 1525 -1388 
Q 825 -1388 478 -1183 
Q 131 -978 131 -584 
Q 131 -266 381 -81 
Q 631 103 1019 119 
L 1019 163 
Q 925 191 825 233 
Q 725 275 653 331 
Q 572 397 522 486 
Q 472 575 472 706 
Q 472 872 589 1011 
Q 706 1150 944 1250 
L 944 1297 
Q 644 1438 478 1658 
Q 313 1878 313 2169 
Q 313 2606 639 2887 
Q 966 3169 1475 3169 
Q 1616 3169 1755 3141 
Q 1894 3113 2038 3069 
L 3113 3069 
L 3113 2769 
L 2388 2769 
L 2388 2750 
Q 2503 2616 2559 2453 
Q 2616 2291 2616 2134 
Q 2616 1728 2286 1447 
Q 1956 1166 1519 1166 
L 1141 1166 
Q 1069 1141 991 1075 
Q 913 1009 913 897 
Q 913 781 978 720 
Q 1044 659 1138 638 
Q 1228 613 1348 606 
Q 1469 600 1597 597 
Q 1734 594 1973 578 
Q 2213 563 2313 559 
Q 2456 553 2601 490 
Q 2747 428 2866 319 
z
M 2022 2147 
Q 2022 2513 1873 2730 
Q 1725 2947 1456 2947 
Q 1309 2947 1204 2886 
Q 1100 2825 1034 2713 
Q 972 2609 945 2464 
Q 919 2319 919 2166 
Q 919 1819 1070 1600 
Q 1222 1381 1463 1381 
Q 1731 1381 1876 1598 
Q 2022 1816 2022 2147 
z
M 2622 -438 
Q 2622 -263 2540 -150 
Q 2459 -38 2294 3 
Q 2206 16 1934 31 
Q 1663 47 1303 47 
Q 966 -19 823 -173 
Q 681 -328 681 -572 
Q 681 -681 728 -781 
Q 775 -881 891 -966 
Q 1000 -1047 1184 -1098 
Q 1369 -1150 1634 -1150 
Q 2094 -1150 2358 -973 
Q 2622 -797 2622 -438 
z
" transform="scale(0.015625)"/>
     <path id="Georgia-79" d="M -9 -1006 
Q -9 -850 77 -751 
Q 163 -653 291 -653 
Q 391 -653 462 -690 
Q 534 -728 591 -788 
Q 638 -834 691 -915 
Q 744 -997 775 -1050 
Q 931 -966 1148 -609 
Q 1366 -253 1463 16 
Q 1166 756 925 1340 
Q 684 1925 422 2550 
Q 363 2694 222 2773 
Q 81 2853 -59 2875 
L -59 3081 
L 1347 3081 
L 1347 2863 
Q 1253 2859 1122 2823 
Q 991 2788 991 2741 
Q 991 2722 1005 2678 
Q 1019 2634 1038 2588 
Q 1156 2278 1400 1695 
Q 1644 1113 1778 763 
Q 1919 1097 2070 1455 
Q 2222 1813 2409 2300 
Q 2431 2359 2472 2464 
Q 2513 2569 2513 2644 
Q 2513 2725 2370 2795 
Q 2228 2866 2100 2881 
L 2100 3081 
L 3244 3081 
L 3244 2888 
Q 3150 2872 2997 2780 
Q 2844 2688 2769 2519 
Q 2397 1656 2108 947 
Q 1819 238 1669 -97 
Q 1472 -534 1317 -779 
Q 1163 -1025 1016 -1166 
Q 872 -1297 755 -1342 
Q 638 -1388 513 -1388 
Q 269 -1388 130 -1272 
Q -9 -1156 -9 -1006 
z
" transform="scale(0.015625)"/>
    </defs>
    <use xlink:href="#Georgia-44"/>
    <use xlink:href="#Georgia-65" transform="translate(74.902344 0)"/>
    <use xlink:href="#Georgia-63" transform="translate(123.242188 0)"/>
    <use xlink:href="#Georgia-6f" transform="translate(168.652344 0)"/>
    <use xlink:href="#Georgia-64" transform="translate(222.558594 0)"/>
    <use xlink:href="#Georgia-65" transform="translate(279.980469 0)"/>
    <use xlink:href="#Georgia-3a" transform="translate(328.320312 0)"/>
    <use xlink:href="#Georgia-20" transform="translate(359.570312 0)"/>
    <use xlink:href="#Georgia-74" transform="translate(383.691406 0)"/>
    <use xlink:href="#Georgia-68" transform="translate(418.212891 0)"/>
    <use xlink:href="#Georgia-65" transform="translate(476.416016 0)"/>
    <use xlink:href="#Georgia-20" transform="translate(524.755859 0)"/>
    <use xlink:href="#Georgia-62" transform="translate(548.876953 0)"/>
    <use xlink:href="#Georgia-6f" transform="translate(604.882812 0)"/>
    <use xlink:href="#Georgia-78" transform="translate(658.789062 0)"/>
    <use xlink:href="#Georgia-20" transform="translate(709.277344 0)"/>
    <use xlink:href="#Georgia-69" transform="translate(733.398438 0)"/>
    <use xlink:href="#Georgia-73" transform="translate(762.695312 0)"/>
    <use xlink:href="#Georgia-20" transform="translate(805.908203 0)"/>
    <use xlink:href="#Georgia-74" transform="translate(830.029297 0)"/>
    <use xlink:href="#Georgia-68" transform="translate(864.550781 0)"/>
    <use xlink:href="#Georgia-65" transform="translate(922.753906 0)"/>
    <use xlink:href="#Georgia-20" transform="translate(971.09375 0)"/>
    <use xlink:href="#Georgia-61" transform="translate(995.214844 0)"/>
    <use xlink:href="#Georgia-6e" transform="translate(1045.605469 0)"/>
    <use xlink:href="#Georgia-63" transform="translate(1104.6875 0)"/>
    <use xlink:href="#Georgia-68" transform="translate(1150.097656 0)"/>
    <use xlink:href="#Georgia-6f" transform="translate(1208.300781 0)"/>
    <use xlink:href="#Georgia-72" transform="translate(1262.207031 0)"/>
    <use xlink:href="#Georgia-2c" transform="translate(1303.173828 0)"/>
    <use xlink:href="#Georgia-20" transform="translate(1330.126953 0)"/>
    <use xlink:href="#Georgia-67" transform="translate(1354.248047 0)"/>
    <use xlink:href="#Georgia-65" transform="translate(1405.175781 0)"/>
    <use xlink:href="#Georgia-6e" transform="translate(1453.515625 0)"/>
    <use xlink:href="#Georgia-74" transform="translate(1512.597656 0)"/>
    <use xlink:href="#Georgia-6c" transform="translate(1547.119141 0)"/>
    <use xlink:href="#Georgia-79" transform="translate(1575.732422 0)"/>
    <use xlink:href="#Georgia-20" transform="translate(1624.951172 0)"/>
    <use xlink:href="#Georgia-63" transform="translate(1649.072266 0)"/>
    <use xlink:href="#Georgia-6f" transform="translate(1694.482422 0)"/>
    <use xlink:href="#Georgia-72" transform="translate(1748.388672 0)"/>
    <use xlink:href="#Georgia-72" transform="translate(1789.355469 0)"/>
    <use xlink:href="#Georgia-65" transform="translate(1830.322266 0)"/>
    <use xlink:href="#Georgia-63" transform="translate(1878.662109 0)"/>
    <use xlink:href="#Georgia-74" transform="translate(1924.072266 0)"/>
    <use xlink:href="#Georgia-65" transform="translate(1958.59375 0)"/>
    <use xlink:href="#Georgia-64" transform="translate(2006.933594 0)"/>
   </g>
  </g>
 </g>
 <defs>
  <clipPath id="pe94ef02fee">
   <rect x="93.384" y="93.061789" width="309.318393" height="175.280423"/>
  </clipPath>
 </defs>
</svg>
