<?xml version="1.0" encoding="utf-8" standalone="no"?>
<!DOCTYPE svg PUBLIC "-//W3C//DTD SVG 1.1//EN"
  "http://www.w3.org/Graphics/SVG/1.1/DTD/svg11.dtd">
<svg xmlns:xlink="http://www.w3.org/1999/xlink" width="332.33pt" height="222.427125pt" viewBox="0 0 332.33 222.427125" xmlns="http://www.w3.org/2000/svg" version="1.1">
 <metadata>
  <rdf:RDF xmlns:dc="http://purl.org/dc/elements/1.1/" xmlns:cc="http://creativecommons.org/ns#" xmlns:rdf="http://www.w3.org/1999/02/22-rdf-syntax-ns#">
   <cc:Work>
    <dc:type rdf:resource="http://purl.org/dc/dcmitype/StillImage"/>
    <dc:date>2026-07-09T20:21:45.329432</dc:date>
    <dc:format>image/svg+xml</dc:format>
    <dc:creator>
     <cc:Agent>
      <dc:title>Matplotlib v3.10.8, https://matplotlib.org/</dc:title>
     </cc:Agent>
    </dc:creator>
   </cc:Work>
  </rdf:RDF>
 </metadata>
 <defs>
  <style type="text/css">*{stroke-linejoin: round; stroke-linecap: butt}</style>
 </defs>
 <g id="figure_1">
  <g id="patch_1">
   <path d="M 0 222.427125 
L 332.33 222.427125 
L 332.33 0 
L 0 0 
L 0 222.427125 
z
" style="fill: none"/>
  </g>
  <g id="axes_1">
   <g id="patch_2">
    <path d="M 23.81 179.064 
L 325.13 179.064 
L 325.13 7.2 
L 23.81 7.2 
L 23.81 179.064 
z
" style="fill: none"/>
   </g>
   <g id="matplotlib.axis_1">
    <g id="xtick_1">
     <g id="line2d_1">
      <defs>
       <path id="mf18e2c6b79" d="M 0 0 
L 0 3.5 
" style="stroke: #23373b; stroke-width: 0.8"/>
      </defs>
      <g>
       <use xlink:href="#mf18e2c6b79" x="37.506364" y="179.064" style="fill: #23373b; stroke: #23373b; stroke-width: 0.8"/>
      </g>
     </g>
     <g id="text_1">
      <!-- −3 -->
      <g style="fill: #23373b" transform="translate(27.923942 195.941969) scale(0.13 -0.13)">
       <defs>
        <path id="DejaVuSans-2212" d="M 678 2272 
L 4684 2272 
L 4684 1741 
L 678 1741 
L 678 2272 
z
" transform="scale(0.015625)"/>
        <path id="DejaVuSans-33" d="M 2597 2516 
Q 3050 2419 3304 2112 
Q 3559 1806 3559 1356 
Q 3559 666 3084 287 
Q 2609 -91 1734 -91 
Q 1441 -91 1130 -33 
Q 819 25 488 141 
L 488 750 
Q 750 597 1062 519 
Q 1375 441 1716 441 
Q 2309 441 2620 675 
Q 2931 909 2931 1356 
Q 2931 1769 2642 2001 
Q 2353 2234 1838 2234 
L 1294 2234 
L 1294 2753 
L 1863 2753 
Q 2328 2753 2575 2939 
Q 2822 3125 2822 3475 
Q 2822 3834 2567 4026 
Q 2313 4219 1838 4219 
Q 1578 4219 1281 4162 
Q 984 4106 628 3988 
L 628 4550 
Q 988 4650 1302 4700 
Q 1616 4750 1894 4750 
Q 2613 4750 3031 4423 
Q 3450 4097 3450 3541 
Q 3450 3153 3228 2886 
Q 3006 2619 2597 2516 
z
" transform="scale(0.015625)"/>
       </defs>
       <use xlink:href="#DejaVuSans-2212"/>
       <use xlink:href="#DejaVuSans-33" transform="translate(83.789062 0)"/>
      </g>
     </g>
    </g>
    <g id="xtick_2">
     <g id="line2d_2">
      <g>
       <use xlink:href="#mf18e2c6b79" x="83.160909" y="179.064" style="fill: #23373b; stroke: #23373b; stroke-width: 0.8"/>
      </g>
     </g>
     <g id="text_2">
      <!-- −2 -->
      <g style="fill: #23373b" transform="translate(73.578487 195.941969) scale(0.13 -0.13)">
       <defs>
        <path id="DejaVuSans-32" d="M 1228 531 
L 3431 531 
L 3431 0 
L 469 0 
L 469 531 
Q 828 903 1448 1529 
Q 2069 2156 2228 2338 
Q 2531 2678 2651 2914 
Q 2772 3150 2772 3378 
Q 2772 3750 2511 3984 
Q 2250 4219 1831 4219 
Q 1534 4219 1204 4116 
Q 875 4013 500 3803 
L 500 4441 
Q 881 4594 1212 4672 
Q 1544 4750 1819 4750 
Q 2544 4750 2975 4387 
Q 3406 4025 3406 3419 
Q 3406 3131 3298 2873 
Q 3191 2616 2906 2266 
Q 2828 2175 2409 1742 
Q 1991 1309 1228 531 
z
" transform="scale(0.015625)"/>
       </defs>
       <use xlink:href="#DejaVuSans-2212"/>
       <use xlink:href="#DejaVuSans-32" transform="translate(83.789062 0)"/>
      </g>
     </g>
    </g>
    <g id="xtick_3">
     <g id="line2d_3">
      <g>
       <use xlink:href="#mf18e2c6b79" x="128.815455" y="179.064" style="fill: #23373b; stroke: #23373b; stroke-width: 0.8"/>
      </g>
     </g>
     <g id="text_3">
      <!-- −1 -->
      <g style="fill: #23373b" transform="translate(119.233033 195.941969) scale(0.13 -0.13)">
       <defs>
        <path id="DejaVuSans-31" d="M 794 531 
L 1825 531 
L 1825 4091 
L 703 3866 
L 703 4441 
L 1819 4666 
L 2450 4666 
L 2450 531 
L 3481 531 
L 3481 0 
L 794 0 
L 794 531 
z
" transform="scale(0.015625)"/>
       </defs>
       <use xlink:href="#DejaVuSans-2212"/>
       <use xlink:href="#DejaVuSans-31" transform="translate(83.789062 0)"/>
      </g>
     </g>
    </g>
    <g id="xtick_4">
     <g id="line2d_4">
      <g>
       <use xlink:href="#mf18e2c6b79" x="174.47" y="179.064" style="fill: #23373b; stroke: #23373b; stroke-width: 0.8"/>
      </g>
     </g>
     <g id="text_4">
      <!-- 0 -->
      <g style="fill: #23373b" transform="translate(170.334375 195.941969) scale(0.13 -0.13)">
       <defs>
        <path id="DejaVuSans-30" d="M 2034 4250 
Q 1547 4250 1301 3770 
Q 1056 3291 1056 2328 
Q 1056 1369 1301 889 
Q 1547 409 2034 409 
Q 2525 409 2770 889 
Q 3016 1369 3016 2328 
Q 3016 3291 2770 3770 
Q 2525 4250 2034 4250 
z
M 2034 4750 
Q 2819 4750 3233 4129 
Q 3647 3509 3647 2328 
Q 3647 1150 3233 529 
Q 2819 -91 2034 -91 
Q 1250 -91 836 529 
Q 422 1150 422 2328 
Q 422 3509 836 4129 
Q 1250 4750 2034 4750 
z
" transform="scale(0.015625)"/>
       </defs>
       <use xlink:href="#DejaVuSans-30"/>
      </g>
     </g>
    </g>
    <g id="xtick_5">
     <g id="line2d_5">
      <g>
       <use xlink:href="#mf18e2c6b79" x="220.124545" y="179.064" style="fill: #23373b; stroke: #23373b; stroke-width: 0.8"/>
      </g>
     </g>
     <g id="text_5">
      <!-- 1 -->
      <g style="fill: #23373b" transform="translate(215.98892 195.941969) scale(0.13 -0.13)">
       <use xlink:href="#DejaVuSans-31"/>
      </g>
     </g>
    </g>
    <g id="xtick_6">
     <g id="line2d_6">
      <g>
       <use xlink:href="#mf18e2c6b79" x="265.779091" y="179.064" style="fill: #23373b; stroke: #23373b; stroke-width: 0.8"/>
      </g>
     </g>
     <g id="text_6">
      <!-- 2 -->
      <g style="fill: #23373b" transform="translate(261.643466 195.941969) scale(0.13 -0.13)">
       <use xlink:href="#DejaVuSans-32"/>
      </g>
     </g>
    </g>
    <g id="xtick_7">
     <g id="line2d_7">
      <g>
       <use xlink:href="#mf18e2c6b79" x="311.433636" y="179.064" style="fill: #23373b; stroke: #23373b; stroke-width: 0.8"/>
      </g>
     </g>
     <g id="text_7">
      <!-- 3 -->
      <g style="fill: #23373b" transform="translate(307.298011 195.941969) scale(0.13 -0.13)">
       <use xlink:href="#DejaVuSans-33"/>
      </g>
     </g>
    </g>
    <g id="text_8">
     <!-- residual  r -->
     <g style="fill: #23373b" transform="translate(141.914141 212.523531) scale(0.13 -0.13)">
      <defs>
       <path id="DejaVuSans-72" d="M 2631 2963 
Q 2534 3019 2420 3045 
Q 2306 3072 2169 3072 
Q 1681 3072 1420 2755 
Q 1159 2438 1159 1844 
L 1159 0 
L 581 0 
L 581 3500 
L 1159 3500 
L 1159 2956 
Q 1341 3275 1631 3429 
Q 1922 3584 2338 3584 
Q 2397 3584 2469 3576 
Q 2541 3569 2628 3553 
L 2631 2963 
z
" transform="scale(0.015625)"/>
       <path id="DejaVuSans-65" d="M 3597 1894 
L 3597 1613 
L 953 1613 
Q 991 1019 1311 708 
Q 1631 397 2203 397 
Q 2534 397 2845 478 
Q 3156 559 3463 722 
L 3463 178 
Q 3153 47 2828 -22 
Q 2503 -91 2169 -91 
Q 1331 -91 842 396 
Q 353 884 353 1716 
Q 353 2575 817 3079 
Q 1281 3584 2069 3584 
Q 2775 3584 3186 3129 
Q 3597 2675 3597 1894 
z
M 3022 2063 
Q 3016 2534 2758 2815 
Q 2500 3097 2075 3097 
Q 1594 3097 1305 2825 
Q 1016 2553 972 2059 
L 3022 2063 
z
" transform="scale(0.015625)"/>
       <path id="DejaVuSans-73" d="M 2834 3397 
L 2834 2853 
Q 2591 2978 2328 3040 
Q 2066 3103 1784 3103 
Q 1356 3103 1142 2972 
Q 928 2841 928 2578 
Q 928 2378 1081 2264 
Q 1234 2150 1697 2047 
L 1894 2003 
Q 2506 1872 2764 1633 
Q 3022 1394 3022 966 
Q 3022 478 2636 193 
Q 2250 -91 1575 -91 
Q 1294 -91 989 -36 
Q 684 19 347 128 
L 347 722 
Q 666 556 975 473 
Q 1284 391 1588 391 
Q 1994 391 2212 530 
Q 2431 669 2431 922 
Q 2431 1156 2273 1281 
Q 2116 1406 1581 1522 
L 1381 1569 
Q 847 1681 609 1914 
Q 372 2147 372 2553 
Q 372 3047 722 3315 
Q 1072 3584 1716 3584 
Q 2034 3584 2315 3537 
Q 2597 3491 2834 3397 
z
" transform="scale(0.015625)"/>
       <path id="DejaVuSans-69" d="M 603 3500 
L 1178 3500 
L 1178 0 
L 603 0 
L 603 3500 
z
M 603 4863 
L 1178 4863 
L 1178 4134 
L 603 4134 
L 603 4863 
z
" transform="scale(0.015625)"/>
       <path id="DejaVuSans-64" d="M 2906 2969 
L 2906 4863 
L 3481 4863 
L 3481 0 
L 2906 0 
L 2906 525 
Q 2725 213 2448 61 
Q 2172 -91 1784 -91 
Q 1150 -91 751 415 
Q 353 922 353 1747 
Q 353 2572 751 3078 
Q 1150 3584 1784 3584 
Q 2172 3584 2448 3432 
Q 2725 3281 2906 2969 
z
M 947 1747 
Q 947 1113 1208 752 
Q 1469 391 1925 391 
Q 2381 391 2643 752 
Q 2906 1113 2906 1747 
Q 2906 2381 2643 2742 
Q 2381 3103 1925 3103 
Q 1469 3103 1208 2742 
Q 947 2381 947 1747 
z
" transform="scale(0.015625)"/>
       <path id="DejaVuSans-75" d="M 544 1381 
L 544 3500 
L 1119 3500 
L 1119 1403 
Q 1119 906 1312 657 
Q 1506 409 1894 409 
Q 2359 409 2629 706 
Q 2900 1003 2900 1516 
L 2900 3500 
L 3475 3500 
L 3475 0 
L 2900 0 
L 2900 538 
Q 2691 219 2414 64 
Q 2138 -91 1772 -91 
Q 1169 -91 856 284 
Q 544 659 544 1381 
z
M 1991 3584 
L 1991 3584 
z
" transform="scale(0.015625)"/>
       <path id="DejaVuSans-61" d="M 2194 1759 
Q 1497 1759 1228 1600 
Q 959 1441 959 1056 
Q 959 750 1161 570 
Q 1363 391 1709 391 
Q 2188 391 2477 730 
Q 2766 1069 2766 1631 
L 2766 1759 
L 2194 1759 
z
M 3341 1997 
L 3341 0 
L 2766 0 
L 2766 531 
Q 2569 213 2275 61 
Q 1981 -91 1556 -91 
Q 1019 -91 701 211 
Q 384 513 384 1019 
Q 384 1609 779 1909 
Q 1175 2209 1959 2209 
L 2766 2209 
L 2766 2266 
Q 2766 2663 2505 2880 
Q 2244 3097 1772 3097 
Q 1472 3097 1187 3025 
Q 903 2953 641 2809 
L 641 3341 
Q 956 3463 1253 3523 
Q 1550 3584 1831 3584 
Q 2591 3584 2966 3190 
Q 3341 2797 3341 1997 
z
" transform="scale(0.015625)"/>
       <path id="DejaVuSans-6c" d="M 603 4863 
L 1178 4863 
L 1178 0 
L 603 0 
L 603 4863 
z
" transform="scale(0.015625)"/>
       <path id="DejaVuSans-20" transform="scale(0.015625)"/>
      </defs>
      <use xlink:href="#DejaVuSans-72"/>
      <use xlink:href="#DejaVuSans-65" transform="translate(38.863281 0)"/>
      <use xlink:href="#DejaVuSans-73" transform="translate(100.386719 0)"/>
      <use xlink:href="#DejaVuSans-69" transform="translate(152.486328 0)"/>
      <use xlink:href="#DejaVuSans-64" transform="translate(180.269531 0)"/>
      <use xlink:href="#DejaVuSans-75" transform="translate(243.746094 0)"/>
      <use xlink:href="#DejaVuSans-61" transform="translate(307.125 0)"/>
      <use xlink:href="#DejaVuSans-6c" transform="translate(368.404297 0)"/>
      <use xlink:href="#DejaVuSans-20" transform="translate(396.1875 0)"/>
      <use xlink:href="#DejaVuSans-20" transform="translate(427.974609 0)"/>
      <use xlink:href="#DejaVuSans-72" transform="translate(459.761719 0)"/>
     </g>
    </g>
   </g>
   <g id="matplotlib.axis_2">
    <g id="text_9">
     <!-- $-\log p(r)$ -->
     <g style="fill: #23373b" transform="translate(17.08 121.472) rotate(-90) scale(0.13 -0.13)">
      <defs>
       <path id="DejaVuSans-6f" d="M 1959 3097 
Q 1497 3097 1228 2736 
Q 959 2375 959 1747 
Q 959 1119 1226 758 
Q 1494 397 1959 397 
Q 2419 397 2687 759 
Q 2956 1122 2956 1747 
Q 2956 2369 2687 2733 
Q 2419 3097 1959 3097 
z
M 1959 3584 
Q 2709 3584 3137 3096 
Q 3566 2609 3566 1747 
Q 3566 888 3137 398 
Q 2709 -91 1959 -91 
Q 1206 -91 779 398 
Q 353 888 353 1747 
Q 353 2609 779 3096 
Q 1206 3584 1959 3584 
z
" transform="scale(0.015625)"/>
       <path id="DejaVuSans-67" d="M 2906 1791 
Q 2906 2416 2648 2759 
Q 2391 3103 1925 3103 
Q 1463 3103 1205 2759 
Q 947 2416 947 1791 
Q 947 1169 1205 825 
Q 1463 481 1925 481 
Q 2391 481 2648 825 
Q 2906 1169 2906 1791 
z
M 3481 434 
Q 3481 -459 3084 -895 
Q 2688 -1331 1869 -1331 
Q 1566 -1331 1297 -1286 
Q 1028 -1241 775 -1147 
L 775 -588 
Q 1028 -725 1275 -790 
Q 1522 -856 1778 -856 
Q 2344 -856 2625 -561 
Q 2906 -266 2906 331 
L 2906 616 
Q 2728 306 2450 153 
Q 2172 0 1784 0 
Q 1141 0 747 490 
Q 353 981 353 1791 
Q 353 2603 747 3093 
Q 1141 3584 1784 3584 
Q 2172 3584 2450 3431 
Q 2728 3278 2906 2969 
L 2906 3500 
L 3481 3500 
L 3481 434 
z
" transform="scale(0.015625)"/>
       <path id="DejaVuSans-Oblique-70" d="M 3175 2156 
Q 3175 2616 2975 2859 
Q 2775 3103 2400 3103 
Q 2144 3103 1911 2972 
Q 1678 2841 1497 2591 
Q 1319 2344 1212 1994 
Q 1106 1644 1106 1300 
Q 1106 863 1306 627 
Q 1506 391 1875 391 
Q 2147 391 2380 519 
Q 2613 647 2778 891 
Q 2956 1147 3065 1494 
Q 3175 1841 3175 2156 
z
M 1394 2969 
Q 1625 3272 1939 3428 
Q 2253 3584 2638 3584 
Q 3175 3584 3472 3232 
Q 3769 2881 3769 2247 
Q 3769 1728 3584 1258 
Q 3400 788 3053 416 
Q 2822 169 2531 39 
Q 2241 -91 1919 -91 
Q 1547 -91 1294 64 
Q 1041 219 916 525 
L 556 -1331 
L -19 -1331 
L 922 3500 
L 1497 3500 
L 1394 2969 
z
" transform="scale(0.015625)"/>
       <path id="DejaVuSans-28" d="M 1984 4856 
Q 1566 4138 1362 3434 
Q 1159 2731 1159 2009 
Q 1159 1288 1364 580 
Q 1569 -128 1984 -844 
L 1484 -844 
Q 1016 -109 783 600 
Q 550 1309 550 2009 
Q 550 2706 781 3412 
Q 1013 4119 1484 4856 
L 1984 4856 
z
" transform="scale(0.015625)"/>
       <path id="DejaVuSans-Oblique-72" d="M 2853 2969 
Q 2766 3016 2653 3041 
Q 2541 3066 2413 3066 
Q 1953 3066 1609 2717 
Q 1266 2369 1153 1784 
L 800 0 
L 225 0 
L 909 3500 
L 1484 3500 
L 1375 2956 
Q 1603 3259 1920 3421 
Q 2238 3584 2597 3584 
Q 2691 3584 2781 3573 
Q 2872 3563 2963 3538 
L 2853 2969 
z
" transform="scale(0.015625)"/>
       <path id="DejaVuSans-29" d="M 513 4856 
L 1013 4856 
Q 1481 4119 1714 3412 
Q 1947 2706 1947 2009 
Q 1947 1309 1714 600 
Q 1481 -109 1013 -844 
L 513 -844 
Q 928 -128 1133 580 
Q 1338 1288 1338 2009 
Q 1338 2731 1133 3434 
Q 928 4138 513 4856 
z
" transform="scale(0.015625)"/>
      </defs>
      <use xlink:href="#DejaVuSans-2212" transform="translate(0 0.015625)"/>
      <use xlink:href="#DejaVuSans-6c" transform="translate(83.789062 0.015625)"/>
      <use xlink:href="#DejaVuSans-6f" transform="translate(111.572266 0.015625)"/>
      <use xlink:href="#DejaVuSans-67" transform="translate(172.753906 0.015625)"/>
      <use xlink:href="#DejaVuSans-Oblique-70" transform="translate(252.466145 0.015625)"/>
      <use xlink:href="#DejaVuSans-28" transform="translate(315.942708 0.015625)"/>
      <use xlink:href="#DejaVuSans-Oblique-72" transform="translate(354.956379 0.015625)"/>
      <use xlink:href="#DejaVuSans-29" transform="translate(396.069661 0.015625)"/>
     </g>
    </g>
   </g>
   <g id="line2d_8">
    <path d="M 37.506364 7.2 
L 42.99864 20.707216 
L 48.490916 33.661708 
L 53.983192 46.063474 
L 59.475468 57.912516 
L 64.967744 69.208833 
L 70.460021 79.952424 
L 75.265762 88.89966 
L 80.071504 97.423715 
L 84.877245 105.52459 
L 89.682987 113.202286 
L 94.488729 120.456801 
L 99.29447 127.288136 
L 104.100212 133.696291 
L 108.219419 138.852179 
L 112.338626 143.697159 
L 116.457833 148.231231 
L 120.57704 152.454395 
L 124.696247 156.366651 
L 128.815455 159.968 
L 132.934662 163.258441 
L 137.053869 166.237974 
L 141.173076 168.906599 
L 145.292283 171.264317 
L 148.724956 172.991582 
L 152.157628 174.502939 
L 155.590301 175.798389 
L 159.022973 176.87793 
L 162.455646 177.741562 
L 165.888319 178.389287 
L 169.320991 178.821103 
L 172.753664 179.037011 
L 176.186336 179.037011 
L 179.619009 178.821103 
L 183.051681 178.389287 
L 186.484354 177.741562 
L 189.917027 176.87793 
L 193.349699 175.798389 
L 196.782372 174.502939 
L 200.215044 172.991582 
L 203.647717 171.264317 
L 207.08039 169.321143 
L 211.199597 166.704336 
L 215.318804 163.77662 
L 219.438011 160.537998 
L 223.557218 156.988467 
L 227.676425 153.128028 
L 231.795632 148.956682 
L 235.914839 144.474428 
L 240.034046 139.681266 
L 244.153254 134.577197 
L 248.272461 129.162219 
L 253.078202 122.451793 
L 257.883944 115.318186 
L 262.689686 107.761399 
L 267.495427 99.781433 
L 272.301169 91.378286 
L 277.10691 82.551959 
L 281.912652 73.302452 
L 287.404928 62.213407 
L 292.897204 50.571638 
L 298.389481 38.377143 
L 303.881757 25.629923 
L 309.374033 12.329979 
L 311.433636 7.2 
L 311.433636 7.2 
" clip-path="url(#p00aa3564d0)" style="fill: none; stroke: #eb811b; stroke-width: 2.4; stroke-linecap: round"/>
   </g>
   <g id="line2d_9">
    <path d="M 37.506364 87.4032 
L 174.126733 178.834274 
L 174.813267 178.834274 
L 311.433636 87.4032 
L 311.433636 87.4032 
" clip-path="url(#p00aa3564d0)" style="fill: none; stroke: #2c7a7b; stroke-width: 2.2; stroke-linecap: round"/>
   </g>
   <g id="line2d_10">
    <path d="M 37.506364 82.329637 
L 46.431312 87.389557 
L 54.669727 92.308774 
L 62.908141 97.487031 
L 71.146555 102.945174 
L 78.698435 108.212222 
L 86.250314 113.747091 
L 93.802194 119.561954 
L 101.354074 125.663061 
L 108.905954 132.045726 
L 117.144368 139.301148 
L 128.12892 149.312331 
L 140.486541 160.542131 
L 145.978817 165.246148 
L 150.098025 168.53 
L 154.217232 171.517019 
L 157.649904 173.716848 
L 160.396042 175.250118 
L 163.14218 176.554125 
L 165.888319 177.605253 
L 168.634457 178.383174 
L 171.380595 178.872065 
L 173.440198 179.042631 
L 175.499802 179.042631 
L 177.559405 178.872065 
L 180.305543 178.383174 
L 183.051681 177.605253 
L 185.79782 176.554125 
L 188.543958 175.250118 
L 191.290096 173.716848 
L 194.722768 171.517019 
L 198.155441 169.05073 
L 202.274648 165.810574 
L 207.08039 161.745101 
L 213.945735 155.610568 
L 237.974443 133.832829 
L 246.212857 126.802986 
L 253.764737 120.64991 
L 261.316617 114.783228 
L 268.868496 109.198233 
L 276.420376 103.883555 
L 283.972256 98.824503 
L 292.21067 93.57825 
L 300.449084 88.596187 
L 309.374033 83.473669 
L 311.433636 82.329637 
L 311.433636 82.329637 
" clip-path="url(#p00aa3564d0)" style="fill: none; stroke: #14b03d; stroke-width: 2.2; stroke-linecap: round"/>
   </g>
   <g id="line2d_11">
    <path d="M 74.03 179.064 
L 74.03 7.2 
" clip-path="url(#p00aa3564d0)" style="fill: none; stroke-dasharray: 7.4,3.2; stroke-dashoffset: 0; stroke: #6e7f82; stroke-width: 2"/>
   </g>
   <g id="line2d_12">
    <path d="M 274.91 179.064 
L 274.91 7.2 
" clip-path="url(#p00aa3564d0)" style="fill: none; stroke-dasharray: 7.4,3.2; stroke-dashoffset: 0; stroke: #6e7f82; stroke-width: 2"/>
   </g>
   <g id="patch_3">
    <path d="M 23.81 179.064 
L 23.81 7.2 
" style="fill: none; stroke: #23373b; stroke-linejoin: miter; stroke-linecap: square"/>
   </g>
   <g id="patch_4">
    <path d="M 23.81 179.064 
L 325.13 179.064 
" style="fill: none; stroke: #23373b; stroke-linejoin: miter; stroke-linecap: square"/>
   </g>
   <g id="legend_1">
    <g id="line2d_13">
     <path d="M 118.321562 20.298438 
L 128.321562 20.298438 
L 138.321562 20.298438 
" style="fill: none; stroke: #eb811b; stroke-width: 2.4; stroke-linecap: round"/>
    </g>
    <g id="text_10">
     <!-- Gaussian  $r^2$ -->
     <g style="fill: #23373b" transform="translate(146.321562 23.798438) scale(0.1 -0.1)">
      <defs>
       <path id="DejaVuSans-47" d="M 3809 666 
L 3809 1919 
L 2778 1919 
L 2778 2438 
L 4434 2438 
L 4434 434 
Q 4069 175 3628 42 
Q 3188 -91 2688 -91 
Q 1594 -91 976 548 
Q 359 1188 359 2328 
Q 359 3472 976 4111 
Q 1594 4750 2688 4750 
Q 3144 4750 3555 4637 
Q 3966 4525 4313 4306 
L 4313 3634 
Q 3963 3931 3569 4081 
Q 3175 4231 2741 4231 
Q 1884 4231 1454 3753 
Q 1025 3275 1025 2328 
Q 1025 1384 1454 906 
Q 1884 428 2741 428 
Q 3075 428 3337 486 
Q 3600 544 3809 666 
z
" transform="scale(0.015625)"/>
       <path id="DejaVuSans-6e" d="M 3513 2113 
L 3513 0 
L 2938 0 
L 2938 2094 
Q 2938 2591 2744 2837 
Q 2550 3084 2163 3084 
Q 1697 3084 1428 2787 
Q 1159 2491 1159 1978 
L 1159 0 
L 581 0 
L 581 3500 
L 1159 3500 
L 1159 2956 
Q 1366 3272 1645 3428 
Q 1925 3584 2291 3584 
Q 2894 3584 3203 3211 
Q 3513 2838 3513 2113 
z
" transform="scale(0.015625)"/>
      </defs>
      <use xlink:href="#DejaVuSans-47" transform="translate(0 0.765625)"/>
      <use xlink:href="#DejaVuSans-61" transform="translate(77.490234 0.765625)"/>
      <use xlink:href="#DejaVuSans-75" transform="translate(138.769531 0.765625)"/>
      <use xlink:href="#DejaVuSans-73" transform="translate(202.148438 0.765625)"/>
      <use xlink:href="#DejaVuSans-73" transform="translate(254.248047 0.765625)"/>
      <use xlink:href="#DejaVuSans-69" transform="translate(306.347656 0.765625)"/>
      <use xlink:href="#DejaVuSans-61" transform="translate(334.130859 0.765625)"/>
      <use xlink:href="#DejaVuSans-6e" transform="translate(395.410156 0.765625)"/>
      <use xlink:href="#DejaVuSans-20" transform="translate(458.789062 0.765625)"/>
      <use xlink:href="#DejaVuSans-20" transform="translate(490.576172 0.765625)"/>
      <use xlink:href="#DejaVuSans-Oblique-72" transform="translate(522.363281 0.765625)"/>
      <use xlink:href="#DejaVuSans-32" transform="translate(568.126458 39.046875) scale(0.7)"/>
     </g>
    </g>
    <g id="line2d_14">
     <path d="M 118.321562 35.078125 
L 128.321562 35.078125 
L 138.321562 35.078125 
" style="fill: none; stroke: #2c7a7b; stroke-width: 2.2; stroke-linecap: round"/>
    </g>
    <g id="text_11">
     <!-- Laplace  $|r|$ -->
     <g style="fill: #23373b" transform="translate(146.321562 38.578125) scale(0.1 -0.1)">
      <defs>
       <path id="DejaVuSans-4c" d="M 628 4666 
L 1259 4666 
L 1259 531 
L 3531 531 
L 3531 0 
L 628 0 
L 628 4666 
z
" transform="scale(0.015625)"/>
       <path id="DejaVuSans-70" d="M 1159 525 
L 1159 -1331 
L 581 -1331 
L 581 3500 
L 1159 3500 
L 1159 2969 
Q 1341 3281 1617 3432 
Q 1894 3584 2278 3584 
Q 2916 3584 3314 3078 
Q 3713 2572 3713 1747 
Q 3713 922 3314 415 
Q 2916 -91 2278 -91 
Q 1894 -91 1617 61 
Q 1341 213 1159 525 
z
M 3116 1747 
Q 3116 2381 2855 2742 
Q 2594 3103 2138 3103 
Q 1681 3103 1420 2742 
Q 1159 2381 1159 1747 
Q 1159 1113 1420 752 
Q 1681 391 2138 391 
Q 2594 391 2855 752 
Q 3116 1113 3116 1747 
z
" transform="scale(0.015625)"/>
       <path id="DejaVuSans-63" d="M 3122 3366 
L 3122 2828 
Q 2878 2963 2633 3030 
Q 2388 3097 2138 3097 
Q 1578 3097 1268 2742 
Q 959 2388 959 1747 
Q 959 1106 1268 751 
Q 1578 397 2138 397 
Q 2388 397 2633 464 
Q 2878 531 3122 666 
L 3122 134 
Q 2881 22 2623 -34 
Q 2366 -91 2075 -91 
Q 1284 -91 818 406 
Q 353 903 353 1747 
Q 353 2603 823 3093 
Q 1294 3584 2113 3584 
Q 2378 3584 2631 3529 
Q 2884 3475 3122 3366 
z
" transform="scale(0.015625)"/>
       <path id="DejaVuSans-7c" d="M 1344 4891 
L 1344 -1509 
L 813 -1509 
L 813 4891 
L 1344 4891 
z
" transform="scale(0.015625)"/>
      </defs>
      <use xlink:href="#DejaVuSans-4c" transform="translate(0 0.578125)"/>
      <use xlink:href="#DejaVuSans-61" transform="translate(55.712891 0.578125)"/>
      <use xlink:href="#DejaVuSans-70" transform="translate(116.992188 0.578125)"/>
      <use xlink:href="#DejaVuSans-6c" transform="translate(180.46875 0.578125)"/>
      <use xlink:href="#DejaVuSans-61" transform="translate(208.251953 0.578125)"/>
      <use xlink:href="#DejaVuSans-63" transform="translate(269.53125 0.578125)"/>
      <use xlink:href="#DejaVuSans-65" transform="translate(324.511719 0.578125)"/>
      <use xlink:href="#DejaVuSans-20" transform="translate(386.035156 0.578125)"/>
      <use xlink:href="#DejaVuSans-20" transform="translate(417.822266 0.578125)"/>
      <use xlink:href="#DejaVuSans-7c" transform="translate(449.609375 0.578125)"/>
      <use xlink:href="#DejaVuSans-Oblique-72" transform="translate(483.300781 0.578125)"/>
      <use xlink:href="#DejaVuSans-7c" transform="translate(524.414062 0.578125)"/>
     </g>
    </g>
    <g id="line2d_15">
     <path d="M 118.321562 50.076562 
L 128.321562 50.076562 
L 138.321562 50.076562 
" style="fill: none; stroke: #14b03d; stroke-width: 2.2; stroke-linecap: round"/>
    </g>
    <g id="text_12">
     <!-- Student-$t$ -->
     <g style="fill: #23373b" transform="translate(146.321562 53.576562) scale(0.1 -0.1)">
      <defs>
       <path id="DejaVuSans-53" d="M 3425 4513 
L 3425 3897 
Q 3066 4069 2747 4153 
Q 2428 4238 2131 4238 
Q 1616 4238 1336 4038 
Q 1056 3838 1056 3469 
Q 1056 3159 1242 3001 
Q 1428 2844 1947 2747 
L 2328 2669 
Q 3034 2534 3370 2195 
Q 3706 1856 3706 1288 
Q 3706 609 3251 259 
Q 2797 -91 1919 -91 
Q 1588 -91 1214 -16 
Q 841 59 441 206 
L 441 856 
Q 825 641 1194 531 
Q 1563 422 1919 422 
Q 2459 422 2753 634 
Q 3047 847 3047 1241 
Q 3047 1584 2836 1778 
Q 2625 1972 2144 2069 
L 1759 2144 
Q 1053 2284 737 2584 
Q 422 2884 422 3419 
Q 422 4038 858 4394 
Q 1294 4750 2059 4750 
Q 2388 4750 2728 4690 
Q 3069 4631 3425 4513 
z
" transform="scale(0.015625)"/>
       <path id="DejaVuSans-74" d="M 1172 4494 
L 1172 3500 
L 2356 3500 
L 2356 3053 
L 1172 3053 
L 1172 1153 
Q 1172 725 1289 603 
Q 1406 481 1766 481 
L 2356 481 
L 2356 0 
L 1766 0 
Q 1100 0 847 248 
Q 594 497 594 1153 
L 594 3053 
L 172 3053 
L 172 3500 
L 594 3500 
L 594 4494 
L 1172 4494 
z
" transform="scale(0.015625)"/>
       <path id="DejaVuSans-2d" d="M 313 2009 
L 1997 2009 
L 1997 1497 
L 313 1497 
L 313 2009 
z
" transform="scale(0.015625)"/>
       <path id="DejaVuSans-Oblique-74" d="M 2706 3500 
L 2619 3053 
L 1472 3053 
L 1100 1153 
Q 1081 1047 1072 975 
Q 1063 903 1063 863 
Q 1063 663 1183 572 
Q 1303 481 1569 481 
L 2150 481 
L 2053 0 
L 1503 0 
Q 991 0 739 200 
Q 488 400 488 806 
Q 488 878 497 964 
Q 506 1050 525 1153 
L 897 3053 
L 409 3053 
L 500 3500 
L 978 3500 
L 1172 4494 
L 1747 4494 
L 1556 3500 
L 2706 3500 
z
" transform="scale(0.015625)"/>
      </defs>
      <use xlink:href="#DejaVuSans-53" transform="translate(0 0.015625)"/>
      <use xlink:href="#DejaVuSans-74" transform="translate(63.476562 0.015625)"/>
      <use xlink:href="#DejaVuSans-75" transform="translate(102.685547 0.015625)"/>
      <use xlink:href="#DejaVuSans-64" transform="translate(166.064453 0.015625)"/>
      <use xlink:href="#DejaVuSans-65" transform="translate(229.541016 0.015625)"/>
      <use xlink:href="#DejaVuSans-6e" transform="translate(291.064453 0.015625)"/>
      <use xlink:href="#DejaVuSans-74" transform="translate(354.443359 0.015625)"/>
      <use xlink:href="#DejaVuSans-2d" transform="translate(393.652344 0.015625)"/>
      <use xlink:href="#DejaVuSans-Oblique-74" transform="translate(429.736328 0.015625)"/>
     </g>
    </g>
    <g id="line2d_16">
     <path d="M 118.321562 64.754688 
L 128.321562 64.754688 
L 138.321562 64.754688 
" style="fill: none; stroke-dasharray: 7.4,3.2; stroke-dashoffset: 0; stroke: #6e7f82; stroke-width: 2"/>
    </g>
    <g id="text_13">
     <!-- Uniform (barrier) -->
     <g style="fill: #23373b" transform="translate(146.321562 68.254688) scale(0.1 -0.1)">
      <defs>
       <path id="DejaVuSans-55" d="M 556 4666 
L 1191 4666 
L 1191 1831 
Q 1191 1081 1462 751 
Q 1734 422 2344 422 
Q 2950 422 3222 751 
Q 3494 1081 3494 1831 
L 3494 4666 
L 4128 4666 
L 4128 1753 
Q 4128 841 3676 375 
Q 3225 -91 2344 -91 
Q 1459 -91 1007 375 
Q 556 841 556 1753 
L 556 4666 
z
" transform="scale(0.015625)"/>
       <path id="DejaVuSans-66" d="M 2375 4863 
L 2375 4384 
L 1825 4384 
Q 1516 4384 1395 4259 
Q 1275 4134 1275 3809 
L 1275 3500 
L 2222 3500 
L 2222 3053 
L 1275 3053 
L 1275 0 
L 697 0 
L 697 3053 
L 147 3053 
L 147 3500 
L 697 3500 
L 697 3744 
Q 697 4328 969 4595 
Q 1241 4863 1831 4863 
L 2375 4863 
z
" transform="scale(0.015625)"/>
       <path id="DejaVuSans-6d" d="M 3328 2828 
Q 3544 3216 3844 3400 
Q 4144 3584 4550 3584 
Q 5097 3584 5394 3201 
Q 5691 2819 5691 2113 
L 5691 0 
L 5113 0 
L 5113 2094 
Q 5113 2597 4934 2840 
Q 4756 3084 4391 3084 
Q 3944 3084 3684 2787 
Q 3425 2491 3425 1978 
L 3425 0 
L 2847 0 
L 2847 2094 
Q 2847 2600 2669 2842 
Q 2491 3084 2119 3084 
Q 1678 3084 1418 2786 
Q 1159 2488 1159 1978 
L 1159 0 
L 581 0 
L 581 3500 
L 1159 3500 
L 1159 2956 
Q 1356 3278 1631 3431 
Q 1906 3584 2284 3584 
Q 2666 3584 2933 3390 
Q 3200 3197 3328 2828 
z
" transform="scale(0.015625)"/>
       <path id="DejaVuSans-62" d="M 3116 1747 
Q 3116 2381 2855 2742 
Q 2594 3103 2138 3103 
Q 1681 3103 1420 2742 
Q 1159 2381 1159 1747 
Q 1159 1113 1420 752 
Q 1681 391 2138 391 
Q 2594 391 2855 752 
Q 3116 1113 3116 1747 
z
M 1159 2969 
Q 1341 3281 1617 3432 
Q 1894 3584 2278 3584 
Q 2916 3584 3314 3078 
Q 3713 2572 3713 1747 
Q 3713 922 3314 415 
Q 2916 -91 2278 -91 
Q 1894 -91 1617 61 
Q 1341 213 1159 525 
L 1159 0 
L 581 0 
L 581 4863 
L 1159 4863 
L 1159 2969 
z
" transform="scale(0.015625)"/>
      </defs>
      <use xlink:href="#DejaVuSans-55"/>
      <use xlink:href="#DejaVuSans-6e" transform="translate(73.193359 0)"/>
      <use xlink:href="#DejaVuSans-69" transform="translate(136.572266 0)"/>
      <use xlink:href="#DejaVuSans-66" transform="translate(164.355469 0)"/>
      <use xlink:href="#DejaVuSans-6f" transform="translate(199.560547 0)"/>
      <use xlink:href="#DejaVuSans-72" transform="translate(260.742188 0)"/>
      <use xlink:href="#DejaVuSans-6d" transform="translate(300.105469 0)"/>
      <use xlink:href="#DejaVuSans-20" transform="translate(397.517578 0)"/>
      <use xlink:href="#DejaVuSans-28" transform="translate(429.304688 0)"/>
      <use xlink:href="#DejaVuSans-62" transform="translate(468.318359 0)"/>
      <use xlink:href="#DejaVuSans-61" transform="translate(531.794922 0)"/>
      <use xlink:href="#DejaVuSans-72" transform="translate(593.074219 0)"/>
      <use xlink:href="#DejaVuSans-72" transform="translate(632.4375 0)"/>
      <use xlink:href="#DejaVuSans-69" transform="translate(673.550781 0)"/>
      <use xlink:href="#DejaVuSans-65" transform="translate(701.333984 0)"/>
      <use xlink:href="#DejaVuSans-72" transform="translate(762.857422 0)"/>
      <use xlink:href="#DejaVuSans-29" transform="translate(803.970703 0)"/>
     </g>
    </g>
   </g>
  </g>
 </g>
 <defs>
  <clipPath id="p00aa3564d0">
   <rect x="23.81" y="7.2" width="301.32" height="171.864"/>
  </clipPath>
 </defs>
</svg>
